<svg width="55" height="44" viewBox="0 0 55 44" fill="none" xmlns="http://www.w3.org/2000/svg">
<path d="M48.8125 0C50.4535 0 52.0273 0.651692 53.1877 1.81171C54.3481 2.97173 55 4.54505 55 6.18557V37.8144C55 39.4549 54.3481 41.0283 53.1877 42.1883C52.0273 43.3483 50.4535 44 48.8125 44H6.1875C5.37495 44 4.57035 43.84 3.81965 43.5292C3.06894 43.2183 2.38684 42.7627 1.81228 42.1883C1.23771 41.6139 0.781946 40.932 0.470995 40.1815C0.160044 39.4311 0 38.6267 0 37.8144V6.18557C0 4.54505 0.651895 2.97173 1.81228 1.81171C2.97266 0.651692 4.54647 0 6.1875 0H48.8125ZM21.3125 23.3677H11.6875C11.1891 23.3677 10.7076 23.5482 10.3319 23.8756C9.95632 24.2031 9.71203 24.6555 9.64425 25.1491L9.625 25.4296V26.7821L9.647 27.079C10.0925 30.1416 12.6555 31.6151 16.5 31.6151C20.1602 31.6151 22.66 30.279 23.276 27.5079L23.353 27.0818L23.375 26.7849V25.4296C23.375 24.9313 23.1945 24.4499 22.8669 24.0744C22.5393 23.6989 22.0868 23.4547 21.593 23.3869L21.3125 23.3677ZM43.3125 24.7313H30.943L30.6625 24.7505C30.1688 24.8184 29.7165 25.0627 29.389 25.4382C29.0615 25.8137 28.8811 26.295 28.8811 26.7931C28.8811 27.2913 29.0615 27.7726 29.389 28.1481C29.7165 28.5236 30.1688 28.7678 30.6625 28.8357L30.943 28.855H43.3125L43.593 28.8357C44.0867 28.7678 44.539 28.5236 44.8665 28.1481C45.194 27.7726 45.3744 27.2913 45.3744 26.7931C45.3744 26.295 45.194 25.8137 44.8665 25.4382C44.539 25.0627 44.0867 24.8184 43.593 24.7505L43.3125 24.7313ZM16.5 12.3766C15.406 12.3766 14.3568 12.8111 13.5832 13.5844C12.8096 14.3578 12.375 15.4067 12.375 16.5003C12.375 17.594 12.8096 18.6429 13.5832 19.4162C14.3568 20.1896 15.406 20.6241 16.5 20.6241C17.594 20.6241 18.6432 20.1896 19.4168 19.4162C20.1904 18.6429 20.625 17.594 20.625 16.5003C20.625 15.4067 20.1904 14.3578 19.4168 13.5844C18.6432 12.8111 17.594 12.3766 16.5 12.3766ZM43.3125 15.1203H30.943L30.6625 15.1395C30.1688 15.2074 29.7165 15.4517 29.389 15.8272C29.0615 16.2027 28.8811 16.684 28.8811 17.1821C28.8811 17.6803 29.0615 18.1616 29.389 18.5371C29.7165 18.9126 30.1688 19.1568 30.6625 19.2247L30.943 19.244H43.3125L43.593 19.2247C44.0867 19.1568 44.539 18.9126 44.8665 18.5371C45.194 18.1616 45.3744 17.6803 45.3744 17.1821C45.3744 16.684 45.194 16.2027 44.8665 15.8272C44.539 15.4517 44.0867 15.2074 43.593 15.1395L43.3125 15.1203Z" fill="#E5DEF1"/>
</svg>
