<svg width="62" height="59" viewBox="0 0 62 59" fill="none" xmlns="http://www.w3.org/2000/svg">
<path d="M53.7362 7.63515e-07C51.9476 -0.000768643 50.2071 0.579988 48.7762 1.65498C47.3454 2.72997 46.3015 4.24112 45.8016 5.96129C45.3016 7.68146 45.3725 9.51771 46.0037 11.194C46.6348 12.8704 47.7921 14.2962 49.3016 15.2573L43.9092 34.1624C43.7418 34.1517 43.5741 34.1461 43.4064 34.1456C41.6287 34.1437 39.8984 34.719 38.4748 35.7854L28.5125 27.4695C28.9841 26.0678 29.0722 24.5651 28.7675 23.1177C28.4628 21.6704 27.7765 20.3313 26.78 19.2397C25.7835 18.1481 24.5131 17.3439 23.1012 16.9108C21.6892 16.4776 20.1871 16.4314 18.7513 16.7769C17.3154 17.1224 15.9982 17.847 14.9367 18.8753C13.8752 19.9035 13.1081 21.198 12.7153 22.6238C12.3225 24.0497 12.3184 25.555 12.7032 26.9831C13.0881 28.4111 13.8479 29.7098 14.9037 30.744L9.05552 42.4606C8.79941 42.4362 8.54231 42.4238 8.28505 42.4233C6.3053 42.4208 4.39026 43.1294 2.88754 44.4204C1.38481 45.7114 0.394002 47.4994 0.09496 49.4597C-0.204082 51.42 0.208463 53.4228 1.25771 55.1044C2.30696 56.7861 3.92337 58.0352 5.81353 58.6249C7.70369 59.2147 9.74231 59.1061 11.5594 58.3189C13.3764 57.5316 14.8514 56.1178 15.7167 54.3342C16.582 52.5506 16.7802 50.5153 16.2752 48.5978C15.7703 46.6803 14.5958 45.0077 12.9648 43.8836L18.4913 32.8135C19.8337 33.1845 21.2481 33.2088 22.6025 32.8841C23.9568 32.5594 25.207 31.8963 26.2363 30.9568L35.8817 39.0084C35.2268 40.4542 35.0007 42.0582 35.2305 43.6292C35.4603 45.2001 36.1364 46.6717 37.178 47.8685C38.2195 49.0653 39.5828 49.9368 41.1051 50.3791C42.6274 50.8213 44.2446 50.8157 45.7639 50.3629C47.2831 49.9101 48.6403 49.0292 49.6736 47.8252C50.7069 46.6212 51.3727 45.1449 51.5916 43.5724C51.8106 41.9999 51.5735 40.3975 50.9085 38.9563C50.2435 37.515 49.1788 36.2957 47.8412 35.4438L53.2334 16.5386C53.3998 16.5487 53.5671 16.5555 53.7362 16.5555C55.9279 16.5555 58.0298 15.6833 59.5796 14.131C61.1293 12.5786 62 10.4731 62 8.27773C62 6.08234 61.1293 3.97687 59.5796 2.42449C58.0298 0.872116 55.9279 7.63515e-07 53.7362 7.63515e-07ZM8.28505 54.8399C7.46783 54.8399 6.66897 54.5972 5.98948 54.1424C5.30999 53.6876 4.78039 53.0412 4.46765 52.2849C4.15492 51.5287 4.07309 50.6965 4.23252 49.8936C4.39195 49.0908 4.78548 48.3533 5.36334 47.7744C5.9412 47.1956 6.67744 46.8014 7.47895 46.6417C8.28046 46.482 9.11126 46.564 9.86627 46.8773C10.6213 47.1905 11.2666 47.721 11.7206 48.4016C12.1746 49.0823 12.417 49.8825 12.417 50.7011C12.4157 51.7984 11.98 52.8504 11.2054 53.6263C10.4308 54.4022 9.38052 54.8387 8.28505 54.8399ZM20.6808 28.972C19.8636 28.972 19.0647 28.7293 18.3852 28.2745C17.7057 27.8197 17.1761 27.1733 16.8634 26.417C16.5507 25.6608 16.4688 24.8286 16.6283 24.0257C16.7877 23.2229 17.1812 22.4854 17.7591 21.9066C18.337 21.3277 19.0732 20.9335 19.8747 20.7738C20.6762 20.6141 21.507 20.6961 22.262 21.0094C23.017 21.3226 23.6623 21.8531 24.1164 22.5337C24.5704 23.2144 24.8127 24.0146 24.8127 24.8332C24.8115 25.9305 24.3758 26.9825 23.6012 27.7584C22.8265 28.5344 21.7763 28.9708 20.6808 28.972ZM43.4064 46.5622C42.5891 46.5622 41.7903 46.3195 41.1108 45.8647C40.4313 45.4099 39.9017 44.7635 39.589 44.0072C39.2762 43.2509 39.1944 42.4188 39.3538 41.6159C39.5133 40.813 39.9068 40.0756 40.4847 39.4967C41.0625 38.9179 41.7988 38.5237 42.6003 38.364C43.4018 38.2043 44.2326 38.2863 44.9876 38.5995C45.7426 38.9128 46.3879 39.4433 46.8419 40.1239C47.2959 40.8045 47.5383 41.6048 47.5383 42.4233C47.5371 43.5207 47.1013 44.5727 46.3267 45.3486C45.5521 46.1245 44.5018 46.561 43.4064 46.5622ZM53.7362 12.4166C52.9189 12.4166 52.1201 12.1738 51.4406 11.7191C50.7611 11.2643 50.2315 10.6179 49.9188 9.8616C49.606 9.10532 49.5242 8.27314 49.6836 7.47027C49.8431 6.66741 50.2366 5.92994 50.8145 5.35111C51.3923 4.77228 52.1285 4.37809 52.9301 4.21839C53.7316 4.05869 54.5624 4.14065 55.3174 4.45392C56.0724 4.76718 56.7177 5.29767 57.1717 5.9783C57.6257 6.65893 57.8681 7.45914 57.8681 8.27773C57.8668 9.37504 57.4311 10.4271 56.6565 11.203C55.8819 11.9789 54.8316 12.4154 53.7362 12.4166Z" fill="#E5DEF1"/>
</svg>
