<svg width="50" height="49" viewBox="0 0 50 49" fill="none" xmlns="http://www.w3.org/2000/svg">
<path d="M25 0C28.3152 0 31.4946 1.29062 33.8388 3.58794C36.183 5.88526 37.5 9.0011 37.5 12.25C37.5 15.4989 36.183 18.6147 33.8388 20.9121C31.4946 23.2094 28.3152 24.5 25 24.5C21.6848 24.5 18.5054 23.2094 16.1612 20.9121C13.817 18.6147 12.5 15.4989 12.5 12.25C12.5 9.0011 13.817 5.88526 16.1612 3.58794C18.5054 1.29062 21.6848 0 25 0ZM25 30.625C38.8125 30.625 50 36.1069 50 42.875V49H0V42.875C0 36.1069 11.1875 30.625 25 30.625Z" fill="#E5DEF1"/>
</svg>
