<svg width="734" height="401" viewBox="0 0 734 401" fill="none" xmlns="http://www.w3.org/2000/svg">
<path fill-rule="evenodd" clip-rule="evenodd" d="M200.667 67.3332C127.029 67.3332 67.3333 127.029 67.3333 200.666C67.3333 274.304 127.029 334 200.667 334H267.333C340.97 334 400.667 274.304 400.667 200.666C400.667 182.257 415.591 167.333 434 167.333C452.41 167.333 467.333 182.257 467.333 200.666C467.333 311.123 377.789 400.667 267.333 400.667H200.667C90.2097 400.667 0.666672 311.123 0.666672 200.666C0.666672 90.2097 90.2098 0.666504 200.667 0.666504H217.333C235.743 0.666504 250.667 15.5903 250.667 33.9998C250.667 52.4093 235.743 67.3332 217.333 67.3332H200.667ZM467.333 67.3332C393.696 67.3332 334 127.029 334 200.666C334 219.076 319.076 234 300.667 234C282.257 234 267.333 219.076 267.333 200.666C267.333 90.2096 356.877 0.666504 467.333 0.666504H534C644.456 0.666504 734 90.2096 734 200.666C734 311.123 644.456 400.667 534 400.667H517.333C498.924 400.667 484 385.743 484 367.333C484 348.924 498.924 334 517.333 334H534C607.637 334 667.333 274.304 667.333 200.666C667.333 127.029 607.637 67.3332 534 67.3332H467.333Z" fill="black"/>
</svg>
