<svg width="43" height="43" viewBox="0 0 43 43" fill="none" xmlns="http://www.w3.org/2000/svg">
<path d="M13.1389 25.0833L19.1111 32.25L27.4722 21.5L38.2222 35.8333H4.77778M43 38.2222V4.77778C43 3.51063 42.4966 2.29539 41.6006 1.39938C40.7046 0.503371 39.4894 0 38.2222 0H4.77778C3.51063 0 2.29539 0.503371 1.39938 1.39938C0.503371 2.29539 0 3.51063 0 4.77778V38.2222C0 39.4894 0.503371 40.7046 1.39938 41.6006C2.29539 42.4966 3.51063 43 4.77778 43H38.2222C39.4894 43 40.7046 42.4966 41.6006 41.6006C42.4966 40.7046 43 39.4894 43 38.2222Z" fill="#E5DEF1"/>
</svg>
