<svg width="48" height="48" viewBox="0 0 48 48" fill="none" xmlns="http://www.w3.org/2000/svg">
<path d="M0.322728 20.0774C-0.47906 24.9171 0.221489 29.8862 2.33003 34.3156C4.43856 38.745 7.85381 42.4219 12.1158 44.851C16.3778 47.2802 21.2818 48.345 26.1674 47.9019C31.053 47.4589 35.6856 45.5294 39.4411 42.3732C43.1966 39.217 45.8947 34.9858 47.1721 30.2493C48.4495 25.5129 48.2447 20.4988 46.5854 15.8823C44.9262 11.2658 41.892 7.26859 37.8917 4.42909C33.8914 1.5896 29.117 0.0441661 24.2115 0.000932068L24.1325 8.96856C27.2049 8.99564 30.1953 9.9636 32.7009 11.7421C35.2064 13.5205 37.1068 16.0241 38.146 18.9156C39.1853 21.8071 39.3135 24.9476 38.5135 27.9142C37.7134 30.8808 36.0235 33.5309 33.6713 35.5077C31.3191 37.4846 28.4176 38.6931 25.3575 38.9706C22.2975 39.2481 19.226 38.5812 16.5565 37.0597C13.8871 35.5383 11.748 33.2353 10.4274 30.461C9.1067 27.6868 8.66792 24.5744 9.17011 21.5431L0.322728 20.0774Z" fill="#E5DEF1"/>
</svg>
