<?xml version="1.0" standalone="no"?>
<!DOCTYPE svg PUBLIC "-//W3C//DTD SVG 20010904//EN"
 "http://www.w3.org/TR/2001/REC-SVG-20010904/DTD/svg10.dtd">
<svg version="1.0" xmlns="http://www.w3.org/2000/svg"
 width="2472.000000pt" height="2800.000000pt" viewBox="0 0 2472.000000 2800.000000"
 preserveAspectRatio="xMidYMid meet">

<g transform="translate(0.000000,2800.000000) scale(0.100000,-0.100000)"
fill="#000000" stroke="none">
<path d="M8690 26703 c-467 -44 -882 -182 -1335 -442 -90 -52 -265 -172 -285
-196 -16 -20 -5 -32 14 -16 8 7 21 9 27 5 8 -5 10 -2 7 7 -4 10 1 15 15 16 11
1 23 7 27 13 4 7 10 11 14 11 20 -3 26 0 20 11 -5 8 4 9 32 5 40 -7 141 23
155 44 3 6 24 11 47 12 29 1 42 6 42 15 0 10 8 13 25 10 17 -4 25 -1 25 9 0 8
5 11 10 8 6 -3 10 0 10 7 0 10 3 9 9 -1 8 -12 12 -13 26 -1 8 7 39 14 68 15
28 2 71 10 95 18 27 11 42 12 42 5 0 -7 14 -8 39 -4 32 5 42 3 50 -11 10 -17
10 -17 11 0 0 9 5 17 11 17 6 0 8 -7 5 -16 -4 -10 -2 -14 6 -11 7 2 12 10 11
16 -2 6 2 11 7 11 6 0 11 -4 11 -10 5 -36 16 -49 38 -43 12 3 17 11 14 19 -4
11 1 10 26 -2 17 -9 29 -19 26 -24 -3 -5 0 -12 6 -16 8 -4 9 -3 5 4 -4 7 -2
12 4 12 6 0 9 3 7 8 -3 4 6 7 19 7 13 0 24 -3 24 -7 0 -5 -6 -8 -12 -8 -9 0
-8 -3 2 -9 8 -6 19 -7 25 -5 5 3 1 -2 -10 -11 -19 -16 -19 -16 8 -11 15 3 25
1 22 -4 -3 -5 3 -11 12 -13 17 -4 17 -5 1 -6 -22 -1 -23 -14 -4 -30 11 -9 15
-6 21 16 l7 28 9 -23 c5 -13 7 -28 4 -33 -4 -5 2 -6 11 -2 12 4 15 3 10 -5 -4
-8 0 -12 11 -12 20 -1 64 -30 45 -30 -7 0 -12 -4 -12 -10 0 -18 30 -11 30 8 1
15 2 15 16 -3 8 -11 13 -28 11 -37 -3 -10 0 -16 7 -15 6 1 10 -3 9 -10 -2 -7
4 -10 12 -7 20 8 19 24 -2 24 -9 0 -14 3 -10 6 10 11 46 -7 41 -20 -3 -7 2
-16 10 -19 9 -4 16 -2 16 4 0 6 8 3 17 -7 13 -13 14 -19 5 -22 -20 -6 -14 -18
10 -19 18 -2 20 0 8 7 -11 7 -11 10 -2 10 7 0 10 5 7 10 -3 6 1 10 10 10 12 0
15 5 11 16 -5 14 -4 15 9 4 8 -7 15 -20 15 -29 0 -13 2 -13 9 -2 6 10 11 5 16
-19 5 -24 10 -29 16 -19 7 11 9 9 10 -6 l0 -20 9 20 c5 11 9 14 9 6 1 -8 8
-11 19 -9 15 4 18 0 15 -26 -1 -17 0 -22 3 -12 5 14 8 16 14 6 12 -20 54 -24
47 -5 -4 8 -1 17 5 21 7 5 9 -1 6 -18 -3 -14 1 -34 9 -44 12 -17 13 -17 13 3
0 12 5 25 10 28 6 4 10 3 9 -2 -3 -18 2 -31 22 -54 17 -19 22 -21 29 -9 6 8
10 10 10 4 0 -6 11 -23 24 -38 20 -24 23 -39 23 -99 0 -51 -2 -65 -8 -47 l-8
25 2 -25 c1 -14 8 -24 14 -23 6 1 13 -11 15 -26 3 -21 1 -28 -9 -24 -12 5 -19
-29 -14 -60 1 -5 -3 -6 -9 -2 -6 4 -10 -7 -11 -27 0 -18 -4 -41 -7 -50 -6 -15
-10 -12 -20 15 -29 71 -30 73 -25 35 4 -24 2 -38 -5 -38 -6 0 -14 -16 -18 -36
-4 -19 -13 -38 -20 -41 -8 -3 -14 -14 -14 -25 0 -10 4 -16 10 -13 6 3 7 -1 4
-9 -11 -28 -30 -15 -25 17 2 11 -9 8 -25 -8 -14 -13 -14 -15 0 -15 13 0 12 -4
-5 -21 -15 -15 -19 -28 -15 -52 6 -29 5 -30 -4 -7 -15 35 -18 36 -35 14 -20
-26 -19 -32 8 -37 15 -3 12 -5 -11 -6 -18 0 -31 3 -27 8 3 5 1 12 -4 15 -16
10 -17 -28 -1 -42 13 -12 12 -13 -8 -8 -13 2 -21 2 -18 -1 3 -3 -2 -12 -12
-19 -10 -8 -12 -13 -4 -14 6 0 12 -5 12 -10 0 -15 -32 -8 -48 10 -11 13 -11
12 -3 -7 6 -12 14 -23 18 -25 5 -3 3 -3 -4 -2 -7 2 -15 -1 -18 -6 -4 -7 -13
-7 -24 0 -18 9 -31 4 -31 -11 0 -5 7 -6 15 -3 8 4 15 1 15 -6 0 -7 7 -10 16
-6 8 3 12 2 9 -4 -3 -6 1 -13 9 -16 9 -3 13 -10 10 -15 -8 -14 -24 -10 -24 6
0 8 -4 15 -10 15 -11 0 -10 -69 2 -76 4 -3 8 -11 8 -17 0 -7 -4 -6 -10 3 -9
13 -10 13 -10 0 0 -13 -1 -13 -10 0 -8 13 -10 12 -10 -2 0 -11 7 -18 18 -18
14 0 15 -2 2 -10 -11 -6 -16 -31 -17 -87 -2 -48 -8 -80 -16 -85 -9 -6 -9 -8 2
-8 7 0 11 -6 8 -14 -3 -7 0 -19 6 -25 9 -9 8 -11 -4 -6 -20 8 -31 -34 -16 -60
7 -14 7 -16 -4 -9 -11 6 -12 5 -2 -8 7 -8 10 -17 7 -20 -2 -3 -7 -18 -10 -33
-3 -20 -1 -25 8 -19 7 4 3 -4 -9 -18 -13 -13 -23 -28 -23 -34 0 -5 8 0 17 11
15 20 15 19 9 -5 -3 -14 -6 -33 -6 -43 0 -10 -4 -16 -9 -12 -5 3 -12 1 -15 -4
-3 -5 4 -12 17 -15 21 -6 21 -7 4 -20 -10 -7 -15 -20 -11 -29 3 -8 1 -18 -5
-22 -6 -3 -11 -15 -11 -26 0 -14 4 -18 13 -13 9 6 9 5 0 -8 -7 -8 -10 -18 -6
-21 3 -4 2 -7 -3 -7 -6 0 -8 -16 -6 -37 4 -30 2 -35 -12 -30 -19 8 -20 0 -2
-32 12 -21 12 -27 0 -39 -14 -14 -17 -32 -15 -91 0 -19 -8 -45 -19 -61 -11
-16 -17 -35 -14 -45 4 -8 3 -15 -2 -14 -20 3 -24 -2 -14 -21 8 -14 8 -20 0
-20 -6 0 -8 -4 -5 -10 3 -5 2 -10 -3 -10 -6 0 -8 -9 -5 -20 3 -13 -5 -34 -23
-57 -15 -20 -21 -33 -13 -29 8 4 5 0 -5 -8 -15 -12 -16 -16 -5 -16 12 0 12 -2
-1 -9 -8 -6 -18 -7 -24 -4 -5 3 -6 1 -2 -6 4 -6 13 -8 19 -4 7 3 3 -3 -7 -15
-11 -12 -17 -25 -13 -28 10 -10 -14 -64 -26 -57 -7 4 -8 0 -4 -11 4 -9 3 -14
-2 -11 -5 3 -12 1 -15 -4 -3 -5 3 -11 14 -14 14 -3 18 -10 14 -22 -4 -9 -13
-14 -21 -11 -8 3 -11 1 -8 -4 3 -6 1 -10 -6 -10 -8 0 -8 -4 1 -15 8 -10 9 -15
2 -15 -6 0 -16 8 -22 18 -11 16 -11 16 -6 0 3 -10 1 -20 -5 -24 -6 -4 -6 -11
2 -20 6 -8 9 -17 5 -21 -3 -3 -6 -1 -6 5 0 28 -20 9 -30 -28 -6 -22 -15 -40
-20 -40 -6 0 -10 -8 -10 -18 0 -11 -9 -27 -20 -37 -11 -10 -20 -23 -20 -30 0
-7 -9 -20 -20 -30 -11 -10 -17 -23 -13 -29 4 -7 1 -6 -8 1 -13 11 -15 9 -15
-10 1 -12 -4 -21 -10 -20 -6 1 -10 -8 -9 -20 1 -12 -6 -31 -16 -41 -11 -11
-19 -14 -19 -8 0 6 5 14 10 17 8 5 7 11 -1 21 -12 15 -29 10 -29 -9 0 -7 4 -6
11 3 7 11 8 6 3 -20 -9 -46 -13 -53 -28 -41 -9 8 -17 0 -30 -30 -14 -31 -23
-40 -37 -36 -10 3 -19 1 -19 -4 0 -5 5 -9 10 -9 6 0 10 -5 10 -11 0 -5 -4 -8
-9 -5 -5 3 -12 -1 -15 -10 -3 -8 -10 -12 -16 -9 -5 3 -10 -1 -10 -9 0 -19 -11
-21 -27 -5 -8 8 -13 7 -18 -2 -5 -8 -4 -10 3 -5 13 8 15 -4 6 -28 -3 -9 -11
-13 -16 -10 -6 4 -5 10 3 15 10 7 9 8 -6 6 -37 -5 -48 -17 -33 -35 8 -9 8 -13
2 -9 -7 4 -15 -1 -18 -10 -6 -14 -9 -15 -15 -4 -13 21 -20 18 -41 -16 -11 -18
-25 -33 -31 -33 -8 0 -7 -6 2 -17 7 -10 9 -15 5 -11 -5 4 -16 2 -24 -5 -13
-10 -14 -9 -7 3 6 12 5 13 -6 3 -16 -16 -33 -17 -23 -1 5 7 3 8 -5 4 -7 -5
-10 -14 -7 -22 3 -8 -1 -14 -9 -14 -10 0 -15 -10 -16 -27 0 -27 0 -28 -10 -5
-8 22 -29 22 -29 1 0 -6 5 -7 12 -3 7 4 8 3 4 -5 -4 -6 -12 -9 -17 -6 -5 4 -9
1 -9 -6 0 -7 -3 -10 -6 -6 -3 3 -17 -6 -30 -21 -20 -23 -25 -25 -34 -12 -6 9
-10 10 -10 3 0 -6 4 -14 10 -18 12 -8 1 -35 -15 -35 -7 0 -18 -7 -25 -15 -11
-13 -15 -13 -22 -3 -7 10 -8 10 -7 -2 3 -31 -2 -40 -22 -40 -19 0 -19 -1 -5
-16 20 -19 21 -31 1 -14 -17 14 -36 5 -29 -14 3 -8 0 -17 -7 -22 -8 -4 -10 -3
-5 4 4 7 4 12 -1 12 -4 0 -23 -25 -42 -55 -19 -30 -37 -53 -39 -50 -3 2 1 13
9 22 12 16 12 17 -2 6 -9 -7 -19 -9 -23 -5 -4 4 -6 2 -5 -3 5 -17 -12 -56 -22
-50 -5 4 -9 -1 -9 -10 0 -11 -5 -15 -14 -12 -11 4 -13 1 -9 -10 5 -12 1 -14
-18 -9 -13 3 -18 3 -11 0 6 -3 12 -10 12 -15 0 -6 -5 -7 -11 -3 -6 3 -22 -6
-36 -22 -13 -16 -22 -24 -19 -18 3 7 -1 17 -9 24 -12 10 -15 9 -15 -6 -1 -18
-1 -18 -17 1 -15 20 -15 20 -10 -2 3 -13 1 -23 -4 -23 -5 0 -9 7 -9 16 0 12
-7 15 -25 12 -14 -3 -28 -1 -31 4 -3 4 -10 6 -15 3 -5 -4 -9 -2 -9 4 0 6 -8 8
-17 4 -16 -6 -15 -3 2 17 l20 23 -21 -11 c-16 -8 -24 -8 -34 1 -12 10 -12 9
-1 -6 8 -9 11 -20 7 -24 -3 -3 -6 -1 -6 5 0 7 -9 12 -20 12 -13 0 -22 9 -26
26 -5 18 -9 22 -14 13 -5 -7 -6 -19 -3 -28 3 -12 0 -11 -11 3 -16 19 -29 24
-73 29 -11 1 -19 5 -17 9 3 4 -5 12 -17 18 -15 8 -19 9 -15 1 10 -16 0 -13
-18 5 -9 8 -16 11 -16 5 0 -6 -7 -11 -15 -11 -8 0 -15 7 -15 15 0 8 -5 15 -11
15 -5 0 -7 -4 -4 -10 4 -7 -3 -7 -20 0 -35 13 -34 13 -45 -12 l-9 -23 0 23
c-1 12 -6 22 -12 22 -5 0 -7 -6 -3 -12 5 -8 1 -7 -10 2 -17 13 -21 12 -42 -15
-13 -16 -26 -26 -30 -22 -4 4 -1 7 6 7 22 0 2 13 -25 16 -20 2 -25 -2 -25 -19
0 -12 -4 -17 -8 -12 -13 18 -42 14 -42 -6 0 -10 -5 -19 -11 -19 -6 0 -9 6 -6
14 4 10 0 12 -14 9 -10 -3 -19 -14 -19 -25 0 -10 -4 -17 -8 -14 -4 2 -14 1
-22 -5 -11 -6 -12 -9 -2 -9 7 0 11 -4 8 -9 -3 -4 -17 -7 -31 -6 -14 2 -27 -1
-31 -6 -3 -5 -9 -7 -13 -4 -5 2 -18 -9 -31 -25 -12 -16 -28 -26 -36 -23 -12 5
-19 -13 -15 -39 0 -5 -11 -8 -25 -8 -19 0 -25 -4 -20 -15 7 -18 -5 -20 -22 -3
-9 9 -12 7 -12 -10 0 -12 -3 -21 -7 -21 -21 3 -24 -3 -12 -18 8 -9 9 -14 3
-10 -7 4 -17 0 -23 -7 -7 -8 -23 -13 -37 -10 -16 3 -24 0 -24 -10 0 -21 -30
-48 -46 -42 -8 3 -14 -1 -14 -9 0 -9 -6 -12 -17 -8 -12 5 -15 2 -10 -10 7 -19
-11 -28 -34 -16 -13 6 -16 4 -15 -9 0 -9 -6 -17 -15 -17 -9 0 -24 -6 -33 -14
-9 -8 -19 -11 -23 -7 -3 3 -15 -1 -25 -11 -11 -9 -18 -11 -18 -5 0 16 -16 15
-33 -3 -9 -9 -17 -11 -19 -4 -2 5 -13 11 -26 12 -12 0 -22 5 -22 9 0 4 -9 8
-21 8 -12 0 -23 8 -26 20 -3 11 -10 17 -15 14 -5 -3 -12 3 -15 15 -3 12 -9 21
-14 21 -5 0 -9 12 -9 26 0 20 -4 25 -16 20 -8 -3 -12 -2 -9 4 3 5 1 18 -4 27
-6 10 -11 12 -11 6 0 -22 -18 -14 -24 10 -6 30 3 -197 15 -358 17 -234 83
-644 146 -909 19 -83 41 -176 48 -206 7 -30 22 -89 34 -130 39 -135 60 -214
82 -305 12 -49 33 -126 46 -170 62 -196 239 -823 263 -930 6 -27 18 -86 26
-130 13 -70 54 -298 54 -301 0 -1 -23 -30 -51 -65 -28 -35 -61 -81 -73 -103
-11 -21 -26 -47 -32 -57 -9 -16 -91 -115 -231 -280 -27 -31 -81 -80 -120 -110
-40 -29 -73 -57 -73 -61 0 -4 -19 -20 -42 -35 -36 -23 -110 -92 -190 -179 -10
-11 -58 -40 -106 -65 -48 -24 -141 -73 -207 -109 l-120 -64 -180 -7 c-187 -7
-312 -20 -427 -44 -210 -43 -318 -91 -618 -269 -91 -54 -178 -104 -195 -112
-29 -12 -79 -43 -357 -216 -129 -81 -223 -149 -273 -200 -43 -44 -84 -58 -167
-58 -109 0 -283 -17 -373 -35 -127 -25 -328 -92 -475 -157 -74 -33 -209 -84
-300 -114 -158 -52 -257 -101 -324 -162 -11 -11 -49 -38 -83 -61 -145 -98
-309 -276 -344 -373 -7 -21 -17 -38 -21 -38 -4 0 -8 -5 -8 -10 0 -6 -9 -29
-19 -51 -11 -21 -22 -58 -26 -82 -4 -23 -12 -50 -17 -61 -6 -10 -11 -28 -12
-40 -2 -18 -14 -58 -56 -192 -6 -17 -10 -41 -10 -53 0 -12 -4 -30 -9 -40 -5
-9 -12 -84 -16 -166 -3 -83 -9 -158 -12 -169 -3 -10 -1 -16 5 -13 5 4 11 -27
14 -76 3 -46 13 -97 21 -114 9 -17 13 -33 10 -37 -4 -3 -2 -6 4 -6 5 0 10 -14
11 -30 0 -17 10 -43 21 -59 12 -16 21 -32 21 -36 0 -14 45 -105 52 -105 4 0
17 -18 29 -40 13 -22 26 -40 30 -40 4 0 5 -9 2 -20 -4 -14 3 -30 17 -45 12
-13 20 -30 17 -38 -7 -18 11 -37 29 -30 8 3 14 0 14 -5 0 -22 -18 -21 -43 2
-17 16 -22 26 -14 29 9 3 9 8 -2 18 -10 11 -15 11 -18 2 -5 -14 -24 -18 -22
-5 3 19 -3 30 -31 50 -27 20 -30 21 -30 5 0 -10 5 -25 10 -33 9 -13 11 -13 19
0 6 8 13 12 16 9 9 -10 -6 -38 -23 -42 -15 -4 -14 -5 1 -6 13 -1 17 -7 13 -18
-6 -20 20 -61 31 -50 3 4 -2 14 -13 22 -10 8 -14 15 -7 15 6 0 19 -7 28 -16
12 -13 13 -19 4 -24 -14 -9 -3 -30 17 -30 8 0 14 9 14 20 0 22 8 25 30 10 13
-9 13 -12 -2 -24 -10 -7 -14 -16 -10 -20 9 -10 10 -56 1 -56 -4 0 -9 6 -12 13
-2 6 -7 -10 -11 -38 -4 -27 -13 -57 -20 -65 -20 -24 -26 -48 -13 -54 9 -5 9
-7 0 -12 -7 -3 -13 -20 -13 -38 0 -18 -4 -36 -9 -42 -6 -5 -7 -24 -1 -49 5
-22 9 -63 9 -92 -1 -29 6 -66 14 -82 8 -16 12 -32 9 -35 -9 -10 -9 -70 0 -83
5 -6 5 -14 -1 -17 -6 -4 -6 -18 -1 -36 5 -17 7 -30 5 -30 -2 0 5 -21 15 -47
14 -38 23 -49 44 -51 14 -2 26 -10 26 -18 0 -8 7 -14 15 -14 8 0 20 -9 27 -20
7 -11 23 -20 35 -20 27 0 39 -16 18 -24 -11 -4 -14 -13 -9 -31 8 -31 -21 -36
-31 -5 -7 22 -45 48 -45 30 0 -5 5 -10 10 -10 6 0 10 -8 9 -17 0 -11 -3 -13
-6 -5 -7 19 -25 14 -20 -5 29 -104 54 -172 62 -169 6 2 8 11 7 21 -3 17 -2 17
20 3 13 -9 22 -24 20 -34 -3 -15 -1 -16 12 -5 8 7 19 11 23 8 4 -3 8 6 8 19 0
13 -2 24 -5 24 -3 0 -6 12 -6 26 -2 23 1 25 30 19 32 -7 147 -45 156 -53 3 -2
-4 -11 -15 -19 -18 -14 -18 -15 -1 -9 16 5 17 3 11 -21 -3 -15 -11 -31 -17
-34 -6 -4 -9 -23 -6 -46 4 -29 1 -46 -13 -64 -10 -13 -19 -29 -19 -35 0 -33
-69 -124 -94 -124 -8 0 -17 -13 -21 -30 -8 -36 -15 -37 -36 -7 -12 17 -14 35
-9 82 4 33 10 68 15 78 5 12 3 17 -10 17 -9 0 -14 4 -10 9 3 5 1 12 -5 16 -7
4 -10 -60 -10 -192 0 -199 8 -255 29 -200 6 16 11 42 11 59 0 21 4 29 14 25 7
-3 19 0 25 6 8 8 11 8 11 0 0 -6 -5 -13 -11 -15 -5 -2 -7 -11 -4 -21 4 -9 12
-14 18 -10 7 4 8 0 3 -13 -11 -26 -24 -136 -19 -151 3 -7 16 -13 28 -13 22 0
23 -3 18 -52 -3 -29 -9 -54 -14 -56 -5 -2 -9 -16 -9 -32 0 -16 -6 -30 -12 -32
-7 -3 -13 -19 -14 -37 -1 -19 -6 -36 -10 -40 -10 -6 -12 -19 -19 -91 -7 -71
-11 -93 -25 -122 -11 -24 -10 -34 11 -82 16 -37 31 -56 44 -58 11 -2 19 -10
17 -18 -2 -8 3 -19 11 -25 15 -11 47 -97 47 -127 0 -10 5 -18 10 -18 15 0 12
-36 -5 -50 -10 -8 -15 -30 -15 -61 0 -32 -4 -49 -12 -50 -7 0 -2 -5 11 -10 17
-6 21 -14 16 -27 -3 -9 -7 -21 -8 -27 -1 -5 -6 -13 -10 -16 -14 -11 15 -202
38 -252 13 -26 18 -44 12 -41 -8 5 -7 2 1 -7 6 -7 12 -29 13 -49 l1 -35 10 28
c5 15 14 27 19 27 5 0 6 17 3 40 -4 26 -2 45 6 55 8 9 8 15 2 15 -6 0 -10 12
-8 28 1 15 -2 33 -7 40 -7 8 -5 12 6 12 17 0 29 57 13 64 -6 2 0 5 13 5 17 1
21 5 17 17 -4 12 -1 14 13 9 20 -6 38 9 22 19 -5 4 -8 12 -7 19 9 51 20 83 30
89 7 5 5 8 -6 8 -12 0 -16 6 -12 24 2 14 0 27 -5 30 -13 8 -1 46 21 68 11 11
17 26 14 33 -3 8 -1 17 4 20 6 4 10 24 10 45 0 21 4 41 9 44 5 3 7 15 4 27 -3
12 -2 24 3 28 5 3 15 20 23 36 l13 30 14 -40 c7 -22 14 -47 14 -57 0 -9 5 -18
11 -20 6 -2 12 -28 15 -58 2 -30 6 -71 8 -90 2 -19 7 -75 11 -125 3 -49 11
-93 17 -96 6 -4 8 -14 5 -23 -3 -8 -2 -18 3 -21 9 -6 7 -27 -7 -79 -4 -15 -7
-16 -14 -5 -7 11 -9 11 -9 1 0 -10 -3 -10 -14 0 -8 7 -12 16 -9 21 2 4 -1 7
-8 7 -7 0 -9 10 -5 30 5 25 2 30 -15 30 -30 0 -59 -18 -59 -38 0 -9 -7 -30
-15 -46 -8 -15 -15 -34 -15 -41 0 -7 -6 -18 -14 -24 -8 -7 -12 -20 -9 -30 3
-10 0 -22 -6 -25 -6 -4 -11 -16 -11 -27 0 -10 -5 -19 -11 -19 -7 0 -9 11 -5
30 3 17 1 30 -4 30 -11 0 -11 1 -14 -64 -1 -32 -7 -52 -19 -61 -22 -16 -22
-26 1 -19 11 4 13 3 5 -3 -17 -12 -33 -59 -35 -104 -2 -63 2 -63 87 18 14 13
27 19 30 13 3 -6 2 -10 -3 -10 -14 0 -68 -93 -91 -157 -28 -80 -26 -132 9
-241 16 -51 30 -99 30 -106 0 -7 11 -23 24 -36 27 -24 56 -97 56 -139 0 -14 7
-35 15 -45 8 -11 15 -29 16 -40 0 -21 1 -21 9 -1 7 18 10 16 24 -18 9 -21 19
-52 23 -70 3 -18 9 -36 14 -42 4 -5 10 -28 14 -50 3 -22 9 -52 11 -67 4 -22 2
-27 -9 -22 -11 4 -13 -1 -9 -22 4 -22 2 -26 -12 -21 -9 4 -16 2 -16 -3 0 -6 5
-10 10 -10 6 0 10 -35 10 -86 0 -47 4 -83 9 -80 11 7 23 -22 15 -35 -3 -6 -2
-15 3 -22 11 -14 38 -98 35 -109 -1 -5 2 -8 7 -8 8 0 44 -103 44 -127 0 -7 3
-13 7 -13 3 0 12 -23 19 -50 8 -30 17 -47 23 -43 6 3 8 2 5 -4 -3 -5 0 -22 8
-37 8 -14 11 -34 8 -43 -4 -11 -3 -14 5 -9 7 4 12 1 12 -7 0 -8 13 -40 29 -72
16 -32 27 -64 24 -71 -3 -8 0 -14 6 -14 6 0 11 -5 11 -11 0 -5 -3 -8 -8 -6 -4
3 -5 -21 -4 -54 2 -32 8 -59 13 -59 5 0 9 -20 9 -45 0 -25 4 -53 9 -63 5 -9
14 -42 21 -72 15 -69 75 -269 101 -337 18 -45 25 -68 28 -94 1 -3 9 -14 19
-25 17 -17 29 -48 38 -93 1 -7 7 -18 13 -24 6 -6 11 -19 11 -29 0 -10 4 -26 9
-36 44 -80 131 -274 131 -291 0 -12 4 -20 8 -17 5 3 9 -13 10 -36 1 -23 6 -55
12 -72 60 -190 86 -277 111 -366 56 -194 312 -950 330 -971 19 -23 17 -36 -30
-174 -74 -219 -83 -312 -56 -575 23 -229 40 -303 95 -409 31 -62 167 -196 223
-221 25 -11 48 -24 50 -28 5 -9 -28 -135 -86 -327 -78 -259 -100 -356 -136
-610 -16 -107 -19 -203 -21 -545 -1 -228 -3 -428 -5 -445 -11 -128 31 -537 76
-740 43 -194 56 -268 52 -285 -3 -9 3 -95 12 -191 19 -196 23 -251 31 -429 9
-185 8 -247 -10 -330 -8 -41 -24 -145 -36 -230 -11 -85 -32 -240 -46 -345 -14
-104 -28 -214 -31 -242 l-6 -53 6947 0 6946 0 0 23 c0 12 -11 121 -24 242 -45
408 -45 410 5 521 26 55 26 215 0 350 -11 56 -25 148 -31 205 -14 132 -90 659
-97 679 -3 8 -8 44 -10 80 -5 76 -58 395 -71 431 -6 14 -8 46 -5 71 3 25 -2
88 -11 139 -18 100 -63 337 -77 404 -15 75 -12 90 24 107 30 14 46 15 143 3
212 -26 498 -45 688 -45 351 0 405 16 911 266 130 64 201 107 301 181 71 54
204 150 294 213 179 126 372 282 436 351 87 96 174 243 208 355 20 66 54 277
88 544 19 149 16 728 -5 920 -9 80 -19 190 -22 245 -5 73 -14 122 -35 180 -16
44 -41 121 -55 170 -15 50 -40 127 -55 172 -16 45 -36 110 -45 145 -17 68 -36
138 -65 233 -10 33 -30 98 -44 145 -18 61 -28 125 -34 225 -9 131 -12 145 -45
215 -66 137 -141 274 -189 345 -27 41 -58 105 -74 155 -15 47 -36 106 -46 132
-10 26 -18 53 -18 60 0 7 -11 49 -24 93 -34 112 -63 223 -71 270 -11 75 -37
180 -53 220 -18 45 -75 134 -136 212 -95 123 -229 312 -271 384 -11 19 -32 54
-47 79 -15 25 -42 72 -59 105 -17 33 -35 65 -39 70 -12 15 -38 64 -120 220
-40 77 -77 145 -81 151 -31 39 -93 293 -103 419 -12 142 -56 195 -163 195 -49
0 -155 24 -253 57 l-55 18 -3 62 c-2 34 4 99 13 144 24 126 20 202 -12 260
-32 60 -74 93 -172 135 -97 42 -104 52 -63 98 46 53 64 92 69 157 9 99 -35
160 -179 247 -20 13 -38 28 -41 35 -2 6 8 34 22 61 21 40 26 64 26 121 -1 77
-16 117 -81 215 -36 53 -37 60 -49 195 -9 94 -22 168 -40 225 -80 258 -114
349 -177 480 -39 80 -78 165 -88 190 -10 25 -31 74 -48 110 -16 36 -51 119
-76 185 -26 66 -65 163 -86 215 -62 155 -62 153 -70 495 -8 337 -15 394 -65
558 -26 88 -66 170 -116 243 -37 55 -150 157 -208 190 -52 29 -151 55 -180 47
-13 -3 -25 4 -37 23 -22 32 -116 78 -259 124 -135 44 -244 83 -406 146 -75 29
-167 63 -205 75 -74 24 -478 184 -609 242 -44 20 -143 54 -220 77 -265 78
-300 91 -435 156 -74 36 -148 71 -164 80 -16 8 -70 24 -120 35 -50 11 -140 40
-201 65 -60 24 -218 81 -350 125 -132 44 -305 105 -385 134 -80 29 -190 68
-245 85 -55 18 -136 45 -180 60 -44 16 -134 45 -200 65 -66 20 -176 54 -245
75 -69 22 -165 51 -213 65 -106 30 -132 43 -217 105 -36 26 -96 64 -135 85
-38 20 -107 64 -152 96 -45 33 -87 59 -94 59 -23 0 -4 -246 35 -451 52 -271
59 -355 52 -579 -5 -150 -2 -262 14 -485 29 -415 50 -669 61 -734 11 -69 11
-142 1 -159 -13 -19 -52 24 -144 161 -110 166 -244 332 -331 413 -135 126
-363 215 -557 218 -93 1 -105 -1 -105 -16 0 -10 -9 -24 -20 -33 -14 -12 -16
-18 -7 -21 18 -8 15 -63 -5 -71 -9 -4 -60 4 -112 16 -93 23 -105 26 -164 50
-15 6 -38 11 -49 11 -21 0 -21 -1 -4 -13 15 -11 17 -17 7 -35 -14 -26 -24 -27
-51 -5 -14 13 -17 20 -8 30 6 8 7 13 0 13 -5 0 -15 -7 -22 -15 -7 -8 -18 -15
-26 -15 -20 0 -128 -67 -155 -97 -22 -23 -22 -25 -4 -20 11 3 36 8 55 12 19 4
44 9 55 12 17 5 18 4 7 -10 -7 -8 -34 -18 -60 -21 -26 -3 -59 -8 -73 -10 -26
-4 -102 -47 -127 -73 -33 -33 -82 -64 -91 -58 -6 3 -64 74 -130 158 -66 84
-163 206 -217 272 -53 66 -129 163 -168 215 -129 171 -202 265 -229 294 -46
50 -227 325 -227 346 0 15 21 12 42 -7 11 -9 18 -11 18 -5 0 26 31 14 174 -67
21 -12 42 -21 47 -19 9 3 -39 42 -200 162 -133 100 -327 255 -351 283 -14 15
-49 50 -78 76 -29 27 -49 53 -46 59 4 6 3 8 -4 4 -5 -3 -25 6 -42 21 -30 25
-31 27 -14 40 10 7 12 13 6 13 -7 0 -12 5 -12 11 0 8 4 8 14 0 7 -6 11 -22 8
-36 -3 -19 0 -25 13 -25 13 0 16 6 12 21 -4 15 -2 18 7 10 7 -6 16 -8 20 -4 4
4 4 0 1 -9 -4 -9 0 -18 10 -22 9 -3 13 -10 10 -16 -3 -5 3 -10 15 -10 14 0 19
4 14 13 -6 9 -5 9 8 0 8 -7 18 -9 23 -5 4 4 3 -3 -3 -14 -9 -18 -8 -25 5 -35
12 -10 15 -10 9 -1 -13 21 11 13 28 -10 9 -13 14 -18 12 -12 -11 22 58 11 71
-11 12 -22 34 -27 45 -10 4 5 8 -5 8 -24 0 -25 4 -32 15 -27 8 3 15 2 15 -3 0
-5 11 -7 25 -6 14 2 25 -1 25 -7 0 -6 11 -8 25 -6 13 3 22 1 19 -3 -3 -5 0 -9
7 -9 8 0 7 -5 -2 -16 -12 -15 -11 -16 9 -10 12 4 22 3 22 -2 0 -6 8 -8 19 -5
10 2 25 -3 35 -12 9 -9 16 -12 16 -6 0 6 5 11 11 11 5 0 8 -4 5 -9 -6 -9 23
-40 39 -40 5 0 12 -8 16 -18 6 -14 8 -11 9 12 l2 30 7 -30 c3 -16 10 -29 14
-27 4 1 16 2 27 2 14 0 18 -5 13 -16 -5 -13 -2 -15 15 -9 16 5 22 2 22 -9 0
-22 20 -20 21 2 0 12 3 11 10 -7 7 -18 15 -22 35 -18 18 3 22 1 15 -6 -19 -19
-12 -24 29 -22 30 1 40 -2 41 -14 0 -10 3 -11 5 -4 4 9 15 9 47 -1 23 -7 48
-11 56 -8 8 3 11 0 8 -5 -8 -13 36 -11 46 2 4 7 10 6 15 -1 4 -6 17 -10 30 -9
12 1 22 -3 22 -9 0 -6 4 -5 9 2 7 11 9 11 14 -1 3 -8 17 -13 36 -12 18 1 34
-2 37 -7 3 -4 10 -6 15 -3 5 4 9 1 9 -5 0 -7 6 -8 18 -1 14 7 22 5 32 -9 9
-12 17 -16 21 -9 4 7 12 5 23 -6 10 -10 24 -14 36 -10 14 4 20 2 18 -6 -2 -7
8 -18 22 -26 14 -7 21 -13 16 -13 -6 0 3 -13 18 -29 16 -16 25 -34 22 -40 -4
-6 -2 -11 3 -11 6 0 11 -6 11 -13 0 -7 9 -18 20 -25 11 -7 20 -19 20 -27 0 -8
5 -15 10 -15 6 0 10 -6 10 -14 0 -7 22 -57 50 -111 27 -54 47 -102 45 -106 -7
-10 16 -59 27 -59 4 0 7 -3 6 -7 -1 -5 2 -24 7 -43 5 -19 9 -39 10 -45 5 -45
21 -92 34 -102 23 -18 47 -10 146 47 48 27 91 50 96 50 5 0 9 5 9 10 0 6 8 10
18 10 10 0 33 17 52 38 19 20 61 65 93 99 32 34 59 68 61 76 1 8 9 26 19 40 9
15 17 28 17 31 0 2 27 50 60 106 33 56 60 105 60 109 0 11 68 110 110 160 19
23 45 54 57 69 13 15 23 31 23 35 0 5 39 52 86 105 48 53 101 114 119 134 26
30 38 36 61 33 16 -2 32 -4 37 -4 4 -1 7 -12 7 -25 0 -13 11 -31 24 -41 19
-14 25 -31 31 -78 5 -51 21 -87 38 -87 12 0 61 135 105 290 33 116 54 213 62
285 18 176 45 317 85 445 7 25 24 79 36 120 12 41 28 93 35 115 8 23 14 52 14
65 0 14 8 47 19 75 27 71 45 75 189 34 151 -42 292 -49 506 -24 193 22 255 41
353 111 180 130 214 173 252 322 50 195 94 339 123 400 17 37 46 101 65 142
19 41 40 81 47 90 7 8 27 40 44 71 16 31 57 101 89 155 32 55 69 124 82 154
13 30 34 73 47 95 34 59 128 298 179 454 44 137 88 314 145 581 17 80 49 222
71 315 38 160 84 356 144 610 97 408 122 631 98 856 l-7 64 -18 -90 c-10 -49
-19 -98 -20 -107 -1 -10 -6 -18 -10 -18 -4 0 -5 -6 -2 -13 2 -7 -6 -25 -20
-40 -24 -26 -42 -64 -38 -80 1 -5 -7 -20 -18 -34 -11 -14 -20 -34 -20 -44 0
-9 -7 -24 -15 -32 -8 -8 -23 -38 -33 -65 -11 -28 -29 -63 -41 -78 -11 -15 -21
-35 -21 -44 0 -10 -7 -23 -15 -30 -8 -7 -15 -19 -15 -26 0 -8 -4 -14 -10 -14
-5 0 -10 -7 -10 -16 0 -9 -8 -28 -18 -42 -10 -15 -27 -46 -37 -69 -11 -24 -23
-43 -27 -43 -5 0 -8 -6 -8 -12 0 -13 -24 -44 -75 -100 -14 -14 -25 -31 -25
-36 0 -5 -7 -12 -15 -16 -8 -3 -15 -15 -15 -27 0 -13 -8 -23 -20 -26 -15 -4
-19 -11 -15 -24 4 -11 3 -19 -2 -18 -20 3 -34 -2 -28 -11 3 -5 1 -10 -4 -10
-6 0 -11 -10 -12 -22 l-1 -23 -6 22 c-7 22 -8 22 -37 7 -16 -8 -26 -12 -23 -8
4 4 -1 19 -12 34 -10 15 -47 112 -80 216 -34 104 -66 197 -72 208 -5 10 -14
48 -19 85 -5 36 -16 95 -25 131 -8 36 -30 153 -49 260 -19 107 -45 254 -59
325 -13 72 -26 162 -27 200 -1 39 -7 73 -13 77 -6 4 -12 38 -13 75 -1 37 -5
79 -8 93 -3 14 -3 19 1 13 8 -18 21 -16 28 4 4 10 4 14 0 11 -4 -4 -15 -3 -25
2 -27 15 -43 -44 -30 -112 5 -29 13 -75 16 -103 4 -27 15 -84 25 -125 20 -79
32 -146 55 -295 41 -275 90 -503 177 -820 34 -121 72 -260 85 -310 31 -113 35
-207 10 -232 -9 -10 -31 -18 -47 -19 -30 -2 -143 -24 -230 -46 -88 -22 -120
-22 -151 1 -15 11 -33 21 -39 21 -5 0 -10 3 -10 8 0 11 -95 62 -116 62 -11 1
-35 7 -56 14 -29 10 -43 11 -72 1 -20 -7 -36 -10 -36 -8 0 3 -7 -1 -16 -8 -9
-7 -22 -14 -30 -15 -7 -1 -21 -9 -30 -18 -8 -9 -22 -16 -30 -16 -8 0 -14 -4
-14 -10 0 -5 -7 -10 -15 -10 -8 0 -15 -4 -15 -10 0 -11 -40 -50 -52 -50 -18 0
25 137 64 203 28 47 30 81 4 44 -7 -9 -18 -17 -24 -17 -18 0 -80 -59 -112
-107 -39 -58 -88 -255 -104 -418 -19 -191 -19 -223 1 -229 10 -3 33 -18 50
-33 54 -48 76 -62 112 -74 43 -14 111 -67 111 -86 0 -7 5 -13 10 -13 6 0 10
-3 10 -8 0 -12 -138 -3 -207 14 -67 16 -220 83 -268 117 -55 40 -146 77 -180
74 -40 -4 -85 -39 -115 -87 -18 -29 -27 -155 -12 -173 5 -7 12 -29 16 -50 5
-27 22 -52 63 -92 30 -31 68 -62 84 -70 15 -9 39 -25 52 -38 12 -12 36 -34 52
-48 17 -14 37 -37 45 -50 47 -73 191 -177 277 -199 44 -12 61 -11 120 2 194
45 373 117 537 217 55 34 112 66 211 119 20 10 28 10 45 0 24 -15 25 -42 5
-123 -9 -33 -17 -64 -18 -70 -1 -5 -5 -14 -9 -20 -3 -5 -9 -31 -13 -57 -4 -27
-11 -48 -16 -48 -5 0 -6 -6 -3 -13 3 -8 -2 -20 -11 -27 -8 -7 -15 -19 -15 -26
0 -18 -36 -128 -59 -179 -33 -73 -61 -150 -61 -167 0 -9 -5 -20 -11 -23 -6 -4
-8 -13 -5 -21 3 -7 1 -16 -3 -18 -5 -3 -12 -25 -16 -48 -10 -55 -11 -62 -14
-68 -2 -4 -20 -75 -35 -145 -3 -11 -9 -49 -15 -85 -17 -115 -39 -180 -77 -226
-50 -62 -87 -79 -136 -65 -21 7 -38 16 -38 22 0 6 -4 8 -9 5 -5 -3 -11 1 -15
9 -3 8 -14 15 -25 15 -11 0 -22 4 -26 10 -3 5 -13 6 -23 3 -18 -7 -97 -74 -97
-83 0 -3 -14 -15 -32 -27 -50 -34 -106 -35 -141 -2 -12 11 -27 17 -34 13 -6
-4 -16 0 -22 8 -6 8 -21 20 -34 27 -12 7 -21 15 -18 19 2 4 -13 25 -35 47 -22
21 -37 45 -35 52 3 7 -1 13 -9 13 -8 0 -19 9 -25 20 -6 11 -8 20 -5 20 4 0 0
7 -9 15 -8 8 -19 15 -25 15 -11 0 -13 5 -15 33 -1 6 -11 20 -23 30 -13 10 -23
27 -23 38 0 10 -7 19 -15 19 -8 0 -15 7 -15 15 0 8 -4 15 -9 15 -5 0 -12 8
-15 18 -12 34 -33 62 -40 54 -4 -4 -7 -2 -6 3 5 25 -1 45 -14 45 -17 0 -46 37
-42 54 2 6 1 8 -1 4 -3 -5 -11 -8 -19 -8 -9 0 -12 5 -9 10 9 15 -34 72 -48 64
-7 -4 -9 -4 -5 1 11 11 -12 36 -25 28 -6 -4 -8 0 -4 10 4 10 1 17 -6 17 -8 0
-6 4 3 10 13 8 13 10 -1 10 -18 0 -33 26 -24 41 3 4 -6 11 -20 15 -14 3 -25
11 -24 18 3 25 -2 36 -16 36 -9 0 -20 11 -25 25 -5 14 -27 41 -47 60 -21 19
-32 35 -25 35 6 0 12 4 12 9 0 5 -6 9 -12 8 -7 0 -22 1 -33 2 -16 1 -17 3 -6
10 11 7 10 12 -8 27 -11 10 -21 25 -21 32 0 8 -11 23 -25 34 -14 11 -25 25
-25 31 0 8 3 7 9 -2 6 -9 9 -5 9 14 0 17 -3 22 -8 15 -4 -7 -13 -9 -20 -5 -9
6 -11 4 -5 -5 6 -9 4 -11 -4 -6 -7 5 -10 14 -7 22 3 8 1 14 -4 14 -5 0 -10 15
-12 33 -2 22 -8 32 -20 32 -22 0 -31 10 -34 38 -1 12 -3 25 -3 29 -1 4 -8 5
-16 2 -9 -4 -15 0 -15 7 0 11 -3 11 -10 -1 -10 -16 -10 -18 -14 35 0 11 -11
21 -26 25 -16 4 -26 14 -28 28 -2 14 -10 22 -23 22 -10 0 -19 5 -19 11 0 5 5
7 10 4 6 -3 10 -1 10 4 0 6 -7 11 -15 11 -9 0 -18 7 -22 16 -3 9 -12 13 -22 9
-13 -5 -13 -4 -4 6 10 10 9 15 -3 23 -8 7 -16 18 -18 26 -4 22 -24 71 -40 102
-11 20 -11 28 -3 32 7 2 3 5 -7 5 -11 1 -17 4 -13 7 3 4 -1 23 -9 43 -9 20
-18 50 -21 66 -2 17 -12 36 -21 43 -9 7 -11 12 -4 12 7 0 12 5 12 11 0 5 -4 8
-9 5 -4 -3 -7 8 -5 24 2 17 0 30 -5 30 -13 0 -29 77 -36 170 -2 25 -5 45 -6
45 -1 0 -2 18 -4 40 -1 22 -7 65 -12 95 -6 30 -11 66 -10 80 0 14 -3 59 -7
100 -4 41 -7 85 -7 98 0 12 -5 22 -12 22 -8 0 -9 2 -1 8 14 9 13 74 -1 68 -6
-2 -11 25 -12 67 -1 39 -6 73 -10 76 -5 3 -8 20 -9 36 -1 51 -15 139 -24 150
-5 6 -8 20 -6 30 2 11 -2 34 -9 50 -23 56 -36 105 -30 114 3 5 1 12 -5 16 -6
4 -8 11 -5 16 4 5 2 9 -3 9 -5 0 -9 10 -8 23 1 12 -1 24 -4 27 -5 4 -24 77
-44 170 -2 8 -11 33 -21 55 -9 21 -28 89 -42 150 -34 151 -33 146 -38 185 -3
19 -12 69 -20 110 -15 78 -25 131 -30 165 -2 11 -11 47 -20 80 -9 33 -18 68
-20 77 -2 9 -8 26 -14 37 -6 11 -11 29 -11 40 0 12 -4 29 -9 39 -5 9 -15 37
-22 62 -7 25 -18 55 -26 67 -7 12 -16 39 -19 60 -3 21 -12 49 -19 63 -11 21
-43 163 -51 225 -1 11 -3 20 -4 20 -1 0 -3 9 -5 20 -2 11 -7 36 -11 55 -4 19
-9 42 -10 50 -2 8 -5 38 -8 65 -2 28 -7 61 -10 75 -17 78 -39 533 -27 546 6 6
7 64 1 64 -3 0 -5 18 -5 40 0 22 2 40 6 40 3 0 4 20 4 45 -1 30 2 42 9 38 6
-4 5 0 -2 9 -10 12 -10 18 -1 23 8 6 7 10 -2 16 -8 5 -9 9 -4 9 6 0 11 17 13
38 1 20 4 60 7 87 2 28 6 71 7 97 2 27 5 48 8 48 3 0 7 17 8 38 2 39 20 136
30 162 3 8 4 21 3 27 -1 7 3 22 9 33 8 15 8 20 -2 20 -10 0 -9 3 1 9 12 8 21
41 24 89 0 6 4 12 9 12 4 0 8 5 8 11 0 5 -4 8 -9 5 -5 -4 -4 10 2 29 6 19 13
35 17 35 3 0 6 10 7 21 1 12 9 29 17 38 9 10 13 20 10 24 -4 4 2 19 12 34 10
15 20 37 21 49 1 11 16 45 33 75 18 29 36 64 41 76 5 13 13 23 18 23 5 0 12
14 16 30 4 17 11 28 16 24 5 -3 12 3 16 13 4 10 15 24 25 31 10 7 16 18 13 23
-4 5 -1 9 4 9 6 0 11 6 11 13 0 8 11 19 24 26 13 7 29 24 35 37 6 13 17 24 25
24 8 0 17 9 21 19 3 11 14 23 23 26 9 3 39 25 66 50 26 24 57 47 67 50 11 4
17 10 14 15 -5 8 23 25 38 22 4 -1 7 2 7 7 0 14 159 86 214 97 98 19 271 21
421 4 148 -17 168 -19 195 -26 24 -5 48 -9 135 -19 22 -2 60 -10 85 -18 25 -8
53 -13 63 -11 9 1 17 -2 17 -7 0 -6 4 -7 10 -4 5 3 24 -1 42 -9 37 -17 118
-37 118 -29 0 3 7 0 15 -7 10 -9 15 -9 15 -1 0 6 5 11 11 11 6 0 9 -6 6 -13
-8 -20 49 -39 63 -21 13 15 5 34 -15 34 -7 0 -15 4 -17 9 -1 5 -10 11 -18 13
-8 2 -17 5 -20 8 -7 9 -148 67 -200 83 -102 33 -190 58 -270 78 -240 60 -510
106 -905 154 -66 8 -147 20 -180 26 -59 11 -705 21 -795 12z m-720 -471 c0
-13 -12 -22 -22 -16 -10 6 -1 24 13 24 5 0 9 -4 9 -8z m520 -1182 c0 -5 -4
-10 -10 -10 -5 0 -10 5 -10 10 0 6 5 10 10 10 6 0 10 -4 10 -10z m-1370 -2644
c0 -3 -4 -8 -10 -11 -5 -3 -10 -1 -10 4 0 6 5 11 10 11 6 0 10 -2 10 -4z
m-1569 -449 c-10 -9 -11 -8 -5 6 3 10 9 15 12 12 3 -3 0 -11 -7 -18z m6353
-819 c-5 -8 -2 -9 10 -5 10 4 19 1 23 -9 5 -13 7 -13 14 -2 7 10 11 7 15 -10
5 -16 10 -20 19 -12 18 15 63 -26 47 -42 -15 -15 -16 -42 -2 -33 6 3 10 -4 10
-17 0 -18 -2 -20 -10 -8 -8 13 -10 12 -10 -2 0 -10 3 -18 8 -18 11 0 7 -71 -6
-103 -14 -34 -15 -40 -3 -33 5 4 1 -11 -9 -31 -13 -27 -15 -42 -8 -50 8 -10 5
-13 -10 -13 -12 0 -23 -9 -27 -20 -4 -12 -15 -20 -28 -19 -12 0 -33 -3 -47 -5
-14 -3 -50 -11 -80 -17 -67 -13 -168 -45 -185 -59 -19 -16 -137 -40 -200 -40
-42 0 -70 6 -92 19 -17 11 -49 21 -70 23 -51 4 -55 29 -9 51 25 12 34 21 30
32 -8 19 13 37 75 67 24 12 74 53 110 90 183 191 183 191 277 230 60 24 98 35
117 31 16 -3 27 -1 27 6 0 6 5 11 11 11 5 0 7 -5 3 -12z m-1016 -512 c117 -59
181 -77 332 -96 123 -15 134 -18 120 -35 -9 -10 -4 -15 22 -21 47 -12 71 -11
83 3 20 24 174 71 252 78 43 4 86 9 97 12 30 8 14 -18 -24 -38 -19 -11 -66
-33 -103 -49 -151 -67 -503 -83 -566 -26 -10 9 -23 16 -29 16 -6 0 -14 4 -17
10 -4 6 1 7 12 4 15 -6 15 -4 -2 9 -11 9 -33 17 -49 17 -44 0 -166 64 -229
121 -97 86 -79 85 101 -5z m142 -136 c0 -5 -2 -10 -4 -10 -3 0 -8 5 -11 10 -3
6 -1 10 4 10 6 0 11 -4 11 -10z m-3775 -3140 c3 -5 1 -10 -4 -10 -6 0 -11 5
-11 10 0 6 2 10 4 10 3 0 8 -4 11 -10z m1820 -1484 c36 -13 60 -36 37 -36 -6
0 -17 -6 -24 -12 -41 -40 -148 -75 -148 -50 0 16 25 32 49 32 31 0 91 21 91
32 0 4 -13 8 -28 8 -35 0 -45 9 -31 27 6 7 12 13 13 13 0 0 19 -7 41 -14z
m220 -56 c-11 -4 -30 -17 -41 -28 -37 -36 -144 -69 -144 -46 0 11 54 49 79 56
82 22 97 26 111 26 9 1 7 -3 -5 -8z m161 -5 c-11 -8 -22 -12 -25 -9 -6 6 19
24 34 24 6 -1 1 -7 -9 -15z m-516 -9 c0 -7 -67 -46 -80 -46 -19 0 -6 24 21 37
23 12 59 17 59 9z m531 -45 c4 -1 6 -9 5 -18 -1 -19 -37 -35 -131 -60 -33 -9
-67 -18 -75 -21 -8 -3 -33 -6 -55 -8 -93 -9 -210 -26 -219 -32 -6 -4 7 -10 29
-14 50 -9 190 -10 198 -2 6 6 117 13 117 7 0 -1 -16 -9 -35 -17 -19 -8 -35
-20 -35 -25 0 -6 -7 -11 -16 -11 -10 0 -13 -6 -10 -18 5 -14 -4 -23 -44 -40
-28 -12 -58 -22 -68 -22 -9 0 -24 -5 -32 -10 -11 -7 -4 -10 28 -10 39 0 41 -1
30 -20 -7 -10 -32 -24 -58 -30 -44 -10 -150 -11 -150 0 0 3 11 14 25 25 13 11
41 35 61 53 20 17 41 32 46 32 5 0 18 9 30 20 12 11 28 20 35 20 7 0 13 7 13
15 0 17 -19 15 -74 -9 -22 -10 -56 -20 -75 -24 -20 -3 -40 -9 -46 -14 -5 -5
-19 -16 -30 -24 -19 -15 -18 -15 13 -10 35 6 39 1 18 -26 -14 -19 -46 -25 -46
-9 0 5 -9 11 -21 14 -15 4 -22 -1 -29 -19 -5 -13 -16 -24 -24 -24 -10 0 -13 6
-9 16 5 13 2 15 -15 9 -17 -5 -22 -2 -22 11 0 20 84 101 99 96 6 -2 11 5 11
16 0 19 32 39 53 34 12 -3 8 16 -5 20 -8 3 -3 14 13 30 29 29 92 41 186 37 32
-1 72 3 88 10 17 7 36 14 43 15 8 1 17 7 20 13 17 25 91 36 163 24z m169 -2
c0 6 7 11 15 11 8 0 15 -4 15 -10 0 -5 11 -10 25 -10 36 0 31 -17 -7 -26 -18
-3 -39 -14 -46 -23 -13 -15 -13 -15 -8 1 5 17 -18 33 -34 23 -18 -11 -22 19
-5 31 14 10 22 11 32 3 9 -8 13 -8 13 0z m-910 -33 c0 -8 -22 -27 -50 -42 -59
-32 -64 -45 -12 -33 20 4 45 6 54 3 10 -3 19 2 22 14 8 23 70 51 111 50 17 -1
47 2 68 6 35 8 39 7 35 -10 -3 -16 -14 -19 -78 -22 -86 -2 -100 -6 -100 -25 0
-10 15 -13 62 -11 85 4 101 -7 49 -35 -32 -16 -47 -19 -61 -11 -13 7 -34 7
-63 0 -44 -9 -108 -4 -138 11 -12 6 -25 0 -48 -21 -17 -17 -35 -30 -40 -30
-17 0 -22 18 -7 23 8 3 20 15 26 26 8 17 8 19 -4 15 -8 -3 -17 -1 -20 5 -4 5
2 12 13 16 10 3 26 14 36 25 10 11 25 20 34 20 9 0 34 9 56 20 47 24 55 25 55
6z m1160 -22 c0 -8 -9 -14 -20 -14 -22 0 -28 26 -7 33 16 6 27 -1 27 -19z
m-290 -18 c-36 -15 -37 -16 -16 -32 18 -13 17 -14 -17 -29 -20 -8 -54 -15 -76
-15 -22 0 -43 -4 -46 -10 -3 -5 -15 -10 -26 -10 -10 0 -19 5 -19 10 0 6 10 10
23 10 12 0 28 9 35 20 8 13 23 20 42 20 17 0 30 5 30 11 0 6 -9 8 -20 4 -11
-4 -20 -2 -20 4 0 6 9 11 20 11 11 0 20 4 20 9 0 5 21 9 47 8 42 0 45 -1 23
-11z m209 -32 c-17 -21 -21 -11 -8 22 10 23 13 25 16 11 3 -10 -1 -25 -8 -33z
m-29 -24 c0 -5 7 -7 15 -4 19 8 19 -6 0 -33 -8 -12 -29 -24 -46 -28 -30 -7
-51 -20 -89 -56 -9 -8 -24 -18 -33 -22 -24 -9 -21 -30 3 -24 27 7 26 4 -18
-41 -24 -24 -58 -46 -90 -56 -29 -10 -52 -23 -52 -30 0 -28 -60 -68 -142 -94
-46 -16 -90 -26 -96 -24 -30 10 -3 41 56 68 25 11 31 18 23 27 -7 9 -4 16 11
26 72 45 137 71 225 91 29 7 50 16 47 21 -3 5 -15 7 -27 5 -64 -14 -97 -16
-97 -8 0 5 8 12 18 16 9 3 24 10 32 15 8 5 47 21 87 36 79 29 110 62 48 52
-43 -7 -45 5 -6 32 25 18 30 19 41 6 14 -17 66 -20 75 -5 3 6 -2 10 -12 10
-10 0 -25 5 -33 11 -13 9 -12 10 3 5 9 -3 17 -1 17 4 0 6 9 10 20 10 11 0 20
-4 20 -10z m-945 -60 c19 -7 19 -8 -5 -18 -14 -5 -34 -20 -45 -32 -21 -23 -66
-50 -84 -50 -6 0 -8 7 -4 16 5 14 3 15 -16 5 -24 -13 -33 -10 -73 28 -35 32
-35 38 0 39 15 0 34 2 42 4 8 2 14 -3 13 -9 -4 -16 24 -17 29 -2 3 8 54 20
118 27 3 0 14 -3 25 -8z m545 -10 c0 -7 6 -7 18 -2 9 5 36 10 60 11 58 3 55
-19 -8 -53 -39 -21 -69 -29 -128 -32 -71 -5 -76 -4 -58 10 11 9 24 16 29 16 5
0 20 9 34 20 14 11 23 20 19 20 -4 0 -4 5 -1 10 8 13 35 13 35 0z m227 -6 c-3
-3 -12 -4 -19 -1 -8 3 -5 6 6 6 11 1 17 -2 13 -5z m307 -32 c6 -10 -51 -68
-59 -61 -6 7 33 69 44 69 6 0 12 -4 15 -8z m-69 -22 c3 -6 -4 -10 -17 -10 -18
0 -20 2 -8 10 19 12 18 12 25 0z m-58 -41 c-9 -6 -17 -14 -17 -19 0 -16 27
-11 34 5 7 20 26 19 26 0 0 -27 -42 -75 -65 -75 -13 0 -27 -10 -35 -25 -23
-43 -152 -158 -229 -205 -72 -43 -154 -72 -178 -63 -16 6 -17 33 -3 33 12 0
25 10 75 55 121 112 200 169 220 161 9 -3 12 0 9 8 -5 14 64 56 91 56 8 0 15
4 15 8 0 8 13 25 51 70 6 7 14 10 17 7 4 -4 -1 -11 -11 -16z m-427 -9 c0 -20
-43 -41 -108 -52 -75 -13 -93 -8 -76 20 19 31 184 60 184 32z m-525 -39 c0 -8
-20 -21 -45 -29 -25 -8 -53 -18 -62 -23 -23 -12 -28 -11 -28 1 0 6 7 10 16 10
8 0 13 4 10 8 -7 12 6 26 39 39 39 14 70 12 70 -6z m-170 -2 c11 -17 0 -20
-21 -4 -17 13 -17 14 -2 15 9 0 20 -5 23 -11z m250 -8 c8 -14 -24 -29 -48 -23
-18 5 -18 6 4 18 29 16 36 17 44 5z m155 -48 c3 -2 -6 -13 -19 -24 -18 -15
-38 -19 -95 -18 -75 1 -189 35 -165 49 14 9 73 -6 77 -20 5 -15 22 -12 22 4 0
21 67 33 125 23 28 -5 52 -11 55 -14z m210 6 c14 0 19 -3 13 -6 -7 -2 -13 -11
-13 -19 0 -8 -6 -14 -13 -14 -8 0 -35 -17 -62 -37 -38 -31 -57 -38 -91 -38
-24 0 -48 5 -54 11 -18 18 13 69 55 88 45 22 117 35 130 24 5 -4 20 -8 35 -9z
m-505 -69 c3 -5 -1 -10 -9 -10 -8 0 -18 5 -21 10 -3 6 1 10 9 10 8 0 18 -4 21
-10z m135 -25 c0 -10 10 -15 29 -15 16 0 34 -7 41 -15 7 -8 26 -15 42 -15 36
0 71 -17 62 -31 -3 -6 3 -13 15 -16 30 -8 26 -23 -7 -23 -34 0 -198 83 -194
99 1 6 -4 11 -12 11 -8 0 -18 5 -21 10 -4 6 5 10 19 10 16 0 26 -6 26 -15z
m-50 -25 c12 -8 11 -10 -7 -10 -12 0 -25 5 -28 10 -8 13 15 13 35 0z m822 -82
c-26 -22 -48 -41 -49 -43 -2 -1 11 -2 27 -2 17 0 30 3 30 7 0 16 38 49 63 55
36 9 34 -5 -3 -30 -16 -11 -30 -23 -30 -27 0 -5 -7 -8 -15 -8 -8 0 -15 -7 -15
-16 0 -9 -21 -37 -46 -62 -34 -34 -48 -42 -54 -32 -7 11 -22 8 -74 -14 -36
-15 -70 -24 -77 -20 -7 4 -33 7 -58 6 -138 -6 -133 -7 -177 42 -23 25 -44 43
-47 40 -7 -8 -57 15 -57 26 0 17 55 5 78 -18 12 -12 31 -22 41 -22 11 0 22 -4
25 -9 3 -4 27 -1 52 7 40 13 58 14 116 4 71 -12 108 -5 108 21 0 7 20 21 45
32 25 11 45 25 45 31 0 7 10 14 23 18 12 3 35 19 51 35 16 17 33 28 37 25 5
-3 -12 -23 -39 -46z m-477 32 c-4 -6 -11 -8 -16 -5 -5 4 -9 1 -9 -4 0 -14 -3
-14 86 5 91 18 116 14 53 -10 -40 -15 -45 -21 -41 -42 4 -22 1 -24 -30 -24
-38 0 -78 24 -78 46 0 8 -9 14 -20 14 -20 0 -26 11 -13 23 11 11 75 8 68 -3z
m785 -20 c0 -4 59 -66 130 -136 172 -169 187 -196 219 -384 6 -30 12 -81 15
-113 3 -32 7 -61 10 -65 2 -4 7 -36 11 -72 3 -36 8 -72 10 -80 2 -8 7 -42 10
-75 8 -88 23 -165 55 -290 37 -144 41 -171 60 -430 11 -144 19 -223 26 -243 2
-7 -1 -10 -6 -7 -6 3 -10 2 -10 -4 0 -5 5 -13 10 -16 6 -3 10 -23 10 -43 0
-34 -1 -35 -13 -16 -41 71 -62 117 -111 241 -30 76 -63 157 -74 178 -11 22
-22 47 -25 55 -4 11 -6 10 -6 -4 -1 -10 15 -59 35 -107 21 -54 33 -97 29 -109
-5 -14 -2 -20 9 -20 9 0 16 -6 16 -13 0 -23 -12 -27 -26 -9 -7 9 -14 12 -14 6
0 -6 7 -17 15 -24 8 -7 15 -23 15 -37 0 -14 4 -21 10 -18 6 3 10 -1 10 -9 0
-9 4 -16 8 -16 17 0 55 -94 62 -154 4 -33 6 -63 4 -65 -2 -2 -11 10 -21 28
-10 17 -22 31 -26 31 -5 0 -5 4 -2 10 3 5 0 7 -8 4 -17 -6 -29 8 -84 104 -52
89 -73 143 -73 184 0 36 15 29 23 -11 6 -28 44 -78 53 -69 7 8 -29 117 -37
112 -5 -3 -12 3 -15 13 -4 10 -24 54 -45 99 -22 44 -39 85 -39 91 0 6 -3 13
-7 15 -14 6 -59 81 -77 128 -9 25 -30 63 -46 86 -16 22 -32 54 -36 70 -4 16
-11 32 -17 35 -5 4 -18 33 -29 65 -11 33 -47 100 -81 151 -51 75 -66 91 -85
90 -31 -2 -39 14 -48 88 -6 55 -8 58 -16 30 -10 -35 -3 -154 11 -168 5 -5 14
-1 23 12 13 18 18 19 40 9 14 -7 34 -30 45 -52 11 -23 35 -70 53 -104 18 -35
33 -76 33 -90 0 -30 25 -74 38 -67 12 8 32 -34 26 -56 -3 -12 0 -19 9 -19 7 0
20 -13 29 -29 8 -16 18 -31 22 -33 5 -3 2 -3 -4 -2 -18 5 -16 -7 7 -36 11 -14
20 -32 20 -41 0 -8 12 -26 26 -40 44 -40 119 -224 87 -212 -17 7 -17 -8 2 -33
17 -22 20 -38 5 -29 -18 11 -11 -15 32 -117 31 -73 56 -115 91 -152 26 -28 55
-64 63 -80 20 -36 44 -116 35 -116 -9 0 -66 89 -84 133 -9 20 -20 37 -24 37
-8 0 -34 37 -105 144 -15 22 -28 47 -28 54 0 6 -4 12 -10 12 -5 0 -10 6 -10
13 0 8 -17 35 -37 62 -25 31 -37 56 -35 72 3 16 -19 59 -65 131 -79 124 -84
133 -108 195 -20 52 -55 92 -41 47 4 -14 11 -45 15 -69 5 -23 13 -46 19 -50
25 -15 109 -157 99 -167 -6 -6 -57 70 -57 84 0 6 -9 17 -20 24 -11 7 -20 18
-20 24 0 6 -13 25 -30 42 -28 30 -66 131 -73 197 -2 17 -7 38 -11 48 -5 9 -5
24 -2 33 5 13 9 14 21 4 8 -7 15 -18 15 -24 0 -7 8 -21 18 -32 9 -10 25 -31
35 -46 10 -16 24 -28 32 -28 7 0 17 -5 21 -12 4 -7 3 -8 -4 -4 -14 8 -15 4 -6
-18 3 -9 10 -14 14 -11 4 3 11 -2 14 -11 3 -8 2 -12 -4 -9 -19 11 -10 -12 19
-52 16 -22 32 -50 36 -64 4 -13 12 -30 18 -38 35 -42 106 -194 112 -236 2 -19
13 -43 25 -55 l20 -20 -6 42 c-3 24 -9 52 -14 63 -4 11 -20 54 -36 95 -27 72
-102 223 -130 265 -8 11 -14 27 -14 36 0 9 -6 19 -13 22 -8 3 -43 44 -78 91
-35 46 -66 80 -70 75 -3 -6 -9 8 -12 31 -3 24 -11 48 -18 54 -9 8 -10 6 -6
-11 7 -32 -17 -30 -31 2 -7 14 -12 35 -12 45 0 23 -18 27 -26 6 -6 -16 21
-103 39 -125 17 -20 33 -90 29 -128 -4 -45 -29 -43 -38 2 -3 19 -10 35 -14 35
-12 0 -29 48 -39 113 -6 34 -11 152 -13 261 -3 213 0 228 42 186 l22 -22 -7
24 c-17 57 -64 62 -86 10 -17 -37 -17 -54 -5 -199 6 -61 4 -73 -11 -81 -15 -9
-15 -12 -1 -34 20 -30 35 -168 19 -168 -15 0 -35 48 -51 122 -10 46 -11 60 -1
72 14 16 8 79 -11 129 -22 56 -37 26 -34 -68 1 -42 5 -59 14 -58 14 3 16 -9 3
-22 -5 -6 -11 -28 -13 -50 l-4 -40 -13 30 c-15 34 -41 127 -47 165 -3 18 1 14
16 -15 l19 -40 1 49 c0 32 -5 53 -15 60 -30 22 -42 176 -14 176 5 0 9 -4 9 -9
0 -5 8 -17 18 -27 9 -10 17 -31 17 -48 0 -21 5 -30 13 -28 8 1 16 -7 19 -18 3
-11 10 -20 15 -20 6 0 9 34 7 88 l-4 87 33 -1 c17 -1 32 3 32 9 0 6 7 19 17
29 9 10 11 18 5 18 -6 0 -13 -4 -16 -9 -3 -4 -16 -6 -28 -4 -16 3 -32 -5 -52
-26 -29 -30 -59 -39 -82 -23 -14 9 -29 122 -16 122 15 0 29 -22 37 -57 3 -18
11 -33 16 -33 13 0 11 12 -7 66 -8 25 -14 48 -11 50 11 11 37 -11 36 -30 -4
-43 1 -57 17 -54 32 6 34 43 7 82 -15 20 -24 39 -21 42 7 6 88 -35 88 -45 0
-3 18 -6 39 -6 22 0 37 3 35 7 -3 5 2 8 10 8 24 0 19 17 -9 36 -14 9 -25 20
-25 25 0 17 29 9 44 -12 8 -12 19 -18 25 -14 17 10 24 -21 11 -45 -10 -20 -8
-27 24 -59 20 -20 36 -42 36 -48 0 -6 6 -16 14 -22 11 -9 18 -4 33 26 18 34
21 68 28 278 4 132 9 243 12 248 5 9 23 -1 23 -13z m-992 -60 c12 -12 22 -25
22 -30 0 -20 -26 -9 -52 20 -22 25 -23 30 -9 30 9 0 27 -9 39 -20z m832 -90
c0 -5 -5 -10 -11 -10 -5 0 -7 5 -4 10 3 6 8 10 11 10 2 0 4 -4 4 -10z m-30
-34 c0 -16 -24 -38 -33 -30 -7 7 14 44 25 44 5 0 8 -6 8 -14z m-70 -8 c-1 -19
-21 -41 -52 -57 -29 -15 -37 -31 -16 -31 6 0 20 7 30 17 22 19 36 10 18 -12
-7 -8 -10 -23 -8 -32 7 -27 -36 -25 -62 2 l-22 24 22 30 c12 17 28 31 35 31 8
0 19 9 25 20 12 22 30 27 30 8z m-150 -19 c0 -7 -23 -34 -51 -60 l-50 -49 -85
0 c-82 0 -84 1 -74 20 10 18 8 20 -19 20 -16 0 -33 -5 -36 -10 -9 -15 -57 0
-82 26 -26 26 -13 37 26 22 14 -5 50 -6 80 -3 31 3 82 7 114 8 32 2 65 10 72
18 18 18 105 25 105 8z m170 -29 c0 -5 -4 -10 -10 -10 -5 0 -10 5 -10 10 0 6
5 10 10 10 6 0 10 -4 10 -10z m-149 -73 c4 -15 4 -25 -1 -22 -5 3 -11 -1 -14
-7 -5 -11 -7 -11 -12 0 -3 6 -10 10 -15 6 -10 -6 -12 17 -3 41 10 24 37 14 45
-18z m-404 -23 c-3 -3 -12 -4 -19 -1 -8 3 -5 6 6 6 11 1 17 -2 13 -5z m285
-96 c2 -13 0 -38 -5 -57 -5 -20 -5 -44 1 -60 11 -28 10 -89 -3 -134 -4 -16 -3
-33 4 -41 6 -7 14 -34 17 -60 4 -26 11 -49 15 -52 12 -7 11 -24 -1 -24 -23 0
-52 87 -61 180 -10 121 -1 270 17 270 7 0 14 -10 16 -22z m418 -40 c0 -18 -2
-20 -9 -8 -6 8 -7 18 -5 22 9 14 14 9 14 -14z m-504 -87 c3 -84 -11 -103 -20
-28 -10 84 -8 123 5 110 7 -7 13 -43 15 -82z m918 -1167 c3 -8 2 -12 -4 -9 -6
3 -10 10 -10 16 0 14 7 11 14 -7z m-9424 -303 c0 -37 -22 -11 -26 31 -3 31 -3
32 11 14 8 -11 15 -31 15 -45z m30 39 c0 -5 -5 -10 -11 -10 -5 0 -7 5 -4 10 3
6 8 10 11 10 2 0 4 -4 4 -10z m-10 -630 c0 -5 -2 -10 -4 -10 -3 0 -8 5 -11 10
-3 6 -1 10 4 10 6 0 11 -4 11 -10z m4643 -2006 c68 -35 155 -106 188 -154 14
-20 39 -55 55 -76 17 -21 47 -66 67 -99 24 -40 51 -69 81 -88 75 -47 215 -197
240 -259 18 -43 70 -112 143 -191 30 -33 88 -105 130 -160 42 -56 92 -118 111
-137 18 -19 40 -47 48 -63 14 -26 13 -28 -12 -50 -14 -12 -57 -53 -95 -92 -50
-51 -71 -67 -80 -58 -6 6 -15 43 -20 83 -11 89 -41 147 -92 176 -42 23 -151
41 -322 53 -61 5 -123 14 -138 22 -14 8 -37 34 -50 59 -45 86 -219 385 -245
420 -14 19 -39 51 -56 70 -17 19 -42 56 -56 82 -22 42 -23 49 -10 73 8 15 25
31 37 36 13 5 23 10 23 13 0 4 -57 132 -70 157 -10 19 -40 135 -40 155 0 8 9
23 20 34 28 28 80 25 143 -6z m-4028 -281 c-4 -37 -16 -86 -24 -98 -9 -16 -10
-84 -1 -90 5 -3 15 4 23 15 14 21 14 21 30 -3 13 -20 13 -27 1 -48 -7 -13 -14
-19 -14 -14 0 6 -6 -1 -13 -14 -6 -13 -16 -23 -21 -22 -5 2 -16 -9 -26 -24
-17 -26 -29 -33 -31 -17 0 4 -7 11 -15 15 -8 5 -11 13 -8 19 4 7 2 8 -5 4 -6
-4 -9 -12 -6 -17 4 -5 2 -9 -3 -9 -5 0 -10 -18 -10 -40 0 -22 -5 -47 -10 -56
-9 -16 -11 -15 -21 5 -14 26 -10 96 7 127 6 12 14 53 16 90 3 38 9 70 15 72 6
2 9 8 5 13 -3 5 0 9 6 9 6 0 9 4 6 9 -7 11 25 71 37 71 5 0 15 7 23 15 25 25
44 19 39 -12z m-180 -573 c3 -5 1 -10 -4 -10 -6 0 -11 5 -11 10 0 6 2 10 4 10
3 0 8 -4 11 -10z m41 -78 c30 -46 66 -141 79 -212 4 -19 16 -61 26 -92 19 -59
27 -126 9 -83 -4 12 -15 27 -24 34 -9 7 -16 24 -16 37 0 13 -3 24 -8 24 -7 0
-22 37 -45 113 -6 20 -15 37 -19 37 -4 0 -8 7 -8 15 0 8 -6 34 -14 57 -19 59
-29 118 -19 118 4 0 22 -22 39 -48z m190 -309 c-3 -3 7 -16 21 -29 26 -25 48
-100 31 -110 -5 -3 -6 -15 -2 -26 4 -15 2 -19 -7 -15 -8 2 -13 10 -11 16 1 7
-9 22 -23 35 -14 13 -25 31 -25 40 0 10 -5 26 -11 38 -15 27 -4 69 17 61 8 -3
13 -8 10 -10z m12092 -474 c31 -5 77 -11 101 -14 89 -12 194 -35 224 -51 46
-23 208 -74 237 -74 31 0 105 -24 185 -61 109 -50 160 -72 195 -85 21 -8 28
-13 16 -13 -24 -1 -16 -10 14 -16 18 -3 21 -1 17 15 -3 11 -1 20 3 20 16 0
223 -100 275 -133 28 -17 62 -43 76 -57 14 -14 54 -50 90 -81 46 -41 88 -94
149 -188 47 -72 88 -137 91 -143 3 -7 11 -22 18 -33 42 -71 81 -170 86 -216
14 -140 14 -147 -1 -153 -8 -3 -14 -13 -14 -21 0 -9 -4 -13 -10 -10 -10 6 -14
-7 -11 -33 1 -7 -7 -21 -19 -30 -12 -10 -22 -34 -26 -62 -3 -25 -11 -51 -16
-57 -6 -7 -8 -22 -5 -33 3 -12 0 -20 -8 -20 -7 0 -15 -10 -19 -22 -10 -42
-131 -163 -189 -191 -95 -45 -242 -90 -270 -83 -23 5 -25 9 -17 36 5 18 5 32
-1 35 -5 4 -7 16 -3 29 8 35 -25 42 -178 41 -76 -1 -138 2 -138 6 0 5 -12 4
-27 -3 -49 -19 -183 -32 -183 -17 0 6 -12 9 -26 7 -19 -2 -32 -15 -50 -48 -13
-25 -24 -41 -24 -37 0 4 17 63 37 130 20 67 38 139 41 159 3 31 1 36 -15 33
-107 -23 -244 -47 -247 -44 -2 2 -40 153 -84 334 -44 182 -99 384 -122 450
-23 66 -64 185 -91 265 -28 80 -70 185 -94 234 -50 99 -52 106 -30 106 8 0 15
4 15 10 0 12 -33 30 -56 30 -19 0 -134 49 -149 63 -7 7 -6 8 1 4 6 -3 21 0 35
6 13 7 43 14 66 14 24 1 51 6 60 12 10 5 21 7 26 4 4 -3 34 -9 65 -14z m-435
-3506 c-18 -2 -48 -2 -65 0 -18 2 -4 4 32 4 36 0 50 -2 33 -4z m59 -523 c-38
-32 -95 -45 -144 -33 l-43 11 55 1 c30 1 75 11 100 21 57 24 60 24 32 0z m-92
-3127 c0 -55 -11 -113 -21 -113 -10 0 -12 110 -3 134 11 29 24 17 24 -21z
m-86 -75 c-8 -80 -27 -168 -37 -168 -16 0 7 175 27 208 13 21 15 13 10 -40z
m-84 -43 c-17 -91 -35 -97 -25 -9 6 60 20 92 33 79 3 -2 -1 -34 -8 -70z m217
38 c-3 -10 -5 -4 -5 12 0 17 2 24 5 18 2 -7 2 -21 0 -30z m-294 -13 c-8 -31
-23 -34 -23 -6 0 16 6 26 14 26 9 0 12 -7 9 -20z m-98 -77 c-9 -64 -15 -84
-24 -79 -11 7 9 126 21 126 5 0 6 -20 3 -47z m-83 5 c-7 -7 -12 -8 -12 -2 0
14 12 26 19 19 2 -3 -1 -11 -7 -17z m393 -94 c-5 -49 -10 -62 -21 -57 -16 6
-18 34 -4 77 5 17 13 45 16 61 7 29 8 29 12 6 2 -14 1 -53 -3 -87z m-242 2
c-9 -70 -33 -89 -33 -27 0 44 30 127 37 101 2 -8 0 -42 -4 -74z m-257 -46
c-13 -59 -14 -61 -15 -25 -1 43 20 130 26 105 2 -8 -3 -44 -11 -80z m78 8 c-3
-29 -9 -66 -14 -83 -4 -16 -11 -55 -14 -86 -3 -30 -12 -73 -19 -94 -11 -33
-15 -36 -19 -18 -7 25 12 113 24 113 4 0 8 23 8 51 0 59 22 169 35 169 2 0 2
-24 -1 -52z m256 15 c0 -42 -20 -104 -31 -98 -10 7 -12 48 -3 94 8 39 34 42
34 4z m66 -63 c-10 -68 -18 -100 -28 -106 -10 -7 -6 94 8 156 7 34 7 34 16 10
5 -14 7 -41 4 -60z m164 28 c-6 -48 -15 -66 -26 -55 -11 10 7 104 20 104 9 0
10 -14 6 -49z m-422 -113 c-5 -32 -13 -65 -18 -74 -20 -36 -22 21 -4 100 14
64 20 76 25 57 3 -14 2 -51 -3 -83z m78 4 c-8 -70 -14 -89 -28 -89 -11 0 -8
19 12 103 16 65 24 59 16 -14z m240 -47 c-7 -81 -9 -88 -26 -77 -11 7 -11 16
6 127 4 23 10 35 16 32 7 -5 8 -34 4 -82z m79 0 c-13 -101 -16 -112 -32 -112
-13 0 -15 9 -9 57 4 32 11 62 16 67 6 6 10 18 10 29 0 10 5 15 10 12 7 -4 9
-25 5 -53z m-245 -21 c0 -30 -21 -91 -31 -91 -5 0 -7 -12 -4 -27 5 -23 4 -25
-5 -11 -15 24 7 145 26 145 8 0 14 -7 14 -16z m305 -68 c-9 -75 -14 -95 -26
-88 -12 8 -11 47 2 101 16 64 32 55 24 -13z m-236 10 c0 -10 -6 -45 -13 -78
-13 -59 -13 -59 -20 -27 -10 43 1 105 16 96 7 -5 9 -1 5 9 -3 10 -2 17 3 17 6
0 10 -8 9 -17z m-264 -92 c-5 -51 -11 -71 -21 -71 -17 0 -18 40 -2 109 17 74
32 49 23 -38z m319 -49 c-4 -9 -7 -26 -8 -36 -1 -11 -7 -21 -13 -23 -20 -7
-16 67 5 87 14 14 18 14 20 3 2 -8 0 -22 -4 -31z m-250 -28 c-7 -36 -8 -37
-15 -14 -4 14 -7 38 -8 55 -1 27 0 28 15 14 12 -12 14 -26 8 -55z m-173 -15
l-9 -44 -1 41 c-1 22 2 44 6 47 12 12 13 1 4 -44z m240 -30 c-6 -11 -11 -26
-11 -34 0 -32 -16 -13 -18 21 -3 45 16 75 31 48 7 -11 6 -23 -2 -35z m254 9
c-7 -44 -20 -67 -31 -56 -12 12 8 98 23 98 12 0 13 -9 8 -42z m-440 -134 c-4
-35 -10 -66 -13 -68 -13 -8 -13 95 -1 132 17 49 23 20 14 -64z m255 38 c0 -45
-1 -46 -13 -22 -14 27 -11 83 4 74 5 -3 9 -26 9 -52z m237 -4 c-3 -20 -4 -21
-11 -5 -5 9 -5 29 0 45 7 25 8 26 11 5 3 -13 3 -33 0 -45z m-411 -67 c-4 -30
-12 -61 -19 -69 -7 -8 -11 -17 -9 -19 1 -1 -1 -4 -5 -5 -14 -5 -15 34 -2 92 8
37 17 57 27 57 12 0 13 -11 8 -56z m481 12 c-3 -10 -5 -4 -5 12 0 17 2 24 5
18 2 -7 2 -21 0 -30z m-165 -48 c-4 -32 -13 -60 -19 -63 -7 -2 -13 4 -13 13 0
9 5 13 10 10 6 -3 10 1 10 10 0 9 -4 14 -9 11 -4 -3 -6 6 -3 19 2 14 8 25 13
25 5 0 9 10 9 22 0 12 2 19 5 16 3 -2 1 -31 -3 -63z m-95 8 c-3 -10 -5 -2 -5
17 0 19 2 27 5 18 2 -10 2 -26 0 -35z m-148 -13 l-1 -25 -8 25 c-4 14 -8 32
-9 40 -1 13 0 13 9 0 5 -8 9 -26 9 -40z m468 8 c-3 -8 -6 -5 -6 6 -1 11 2 17
5 13 3 -3 4 -12 1 -19z m-486 -85 l-4 -38 -10 32 c-5 18 -7 40 -3 50 11 28 23
-1 17 -44z m319 -17 c0 -14 -4 -28 -10 -31 -6 -4 -10 7 -10 24 0 17 5 31 10
31 6 0 10 -11 10 -24z m-240 -10 c0 -13 -9 -34 -20 -47 l-19 -24 -1 22 c0 30
17 73 30 73 5 0 10 -11 10 -24z m-244 -3 c-2 -10 -11 -45 -18 -78 l-13 -60 -3
54 c-4 68 4 101 24 101 10 0 14 -6 10 -17z m58 -82 c-4 -17 -11 -31 -16 -31
-6 0 -8 13 -4 31 3 17 6 39 6 48 1 15 1 15 10 -1 6 -9 7 -30 4 -47z m251 49
c9 -14 -6 -81 -16 -74 -12 7 -12 84 0 84 6 0 13 -4 16 -10z m235 -34 c0 -14
-4 -28 -10 -31 -6 -4 -10 7 -10 24 0 17 5 31 10 31 6 0 10 -11 10 -24z m78
-21 c-3 -36 -18 -31 -18 6 0 17 4 28 10 24 5 -3 9 -17 8 -30z m-619 -199 c-9
-8 -10 -7 -5 7 3 10 7 28 7 40 2 16 3 14 6 -7 3 -16 -1 -34 -8 -40z m2 -39
c-10 -9 -11 -8 -5 6 3 10 9 15 12 12 3 -3 0 -11 -7 -18z"/>
<path d="M9745 15400 c-3 -5 -2 -10 4 -10 5 0 13 5 16 10 3 6 2 10 -4 10 -5 0
-13 -4 -16 -10z"/>
<path d="M9555 15260 c-3 -5 -1 -10 4 -10 6 0 11 5 11 10 0 6 -2 10 -4 10 -3
0 -8 -4 -11 -10z"/>
<path d="M9635 15070 c-3 -5 1 -10 9 -10 9 0 16 5 16 10 0 6 -4 10 -9 10 -6 0
-13 -4 -16 -10z"/>
<path d="M9585 15030 c-3 -5 -1 -10 4 -10 6 0 11 5 11 10 0 6 -2 10 -4 10 -3
0 -8 -4 -11 -10z"/>
<path d="M9535 15021 c-3 -5 -1 -12 5 -16 5 -3 10 1 10 9 0 18 -6 21 -15 7z"/>
<path d="M9770 14720 c0 -5 7 -10 16 -10 8 0 12 5 9 10 -3 6 -10 10 -16 10 -5
0 -9 -4 -9 -10z"/>
<path d="M9755 14678 c9 -29 23 -44 32 -35 8 9 -17 57 -29 57 -5 0 -6 -10 -3
-22z"/>
<path d="M9805 14625 c3 -32 12 -66 20 -75 8 -9 15 -24 15 -33 0 -9 5 -17 11
-17 7 0 8 7 3 18 -4 9 -10 41 -12 70 -2 28 -8 52 -13 52 -5 0 -14 10 -20 23
-7 16 -8 7 -4 -38z"/>
<path d="M9892 14559 c-28 -11 -23 -35 6 -32 27 3 54 -35 58 -82 2 -19 9 -44
17 -57 8 -13 18 -34 22 -48 4 -14 22 -56 40 -95 49 -103 92 -207 100 -243 3
-18 10 -32 14 -32 4 0 18 -20 30 -45 12 -25 26 -45 31 -45 18 0 22 23 7 35 -9
7 -14 14 -11 17 3 3 -4 25 -15 49 -11 24 -32 73 -46 109 -15 35 -54 121 -87
190 -33 69 -68 148 -78 175 -30 85 -41 104 -58 98 -10 -4 -13 -2 -8 5 8 14 9
14 -22 1z m268 -549 c0 -5 -4 -10 -10 -10 -5 0 -10 5 -10 10 0 6 5 10 10 10 6
0 10 -4 10 -10z"/>
<path d="M9884 14461 c3 -18 6 -53 6 -76 0 -31 7 -52 24 -72 13 -15 27 -39 31
-53 4 -14 11 -27 15 -30 11 -8 65 -94 66 -105 0 -5 3 -17 6 -25 3 -8 10 -31
16 -50 29 -95 60 -155 63 -119 1 7 4 1 8 -15 3 -17 10 -29 15 -27 16 5 67
-111 61 -139 -4 -18 -3 -21 4 -11 8 12 11 9 17 -12 3 -16 8 -26 11 -23 9 8
-50 177 -72 210 -8 11 -15 28 -15 38 0 10 -4 18 -9 18 -5 0 -15 17 -22 38 -16
52 -87 193 -108 217 -10 11 -25 34 -33 50 -9 17 -25 48 -37 70 -12 21 -21 55
-21 75 0 20 -7 45 -16 56 -15 18 -15 17 -10 -15z m226 -506 c0 -5 -5 -3 -10 5
-5 8 -10 20 -10 25 0 6 5 3 10 -5 5 -8 10 -19 10 -25z"/>
<path d="M9816 14235 c5 -11 2 -13 -10 -9 -14 6 -15 3 -5 -18 12 -28 39 -33
39 -7 0 24 -10 49 -21 49 -4 0 -6 -7 -3 -15z"/>
<path d="M9888 14148 c-3 -7 4 -26 14 -43 l20 -30 -6 35 c-7 39 -21 58 -28 38z"/>
<path d="M9926 14073 c-11 -11 -6 -23 9 -23 8 0 15 4 15 9 0 13 -16 22 -24 14z"/>
<path d="M10220 13830 c0 -6 7 -27 15 -47 8 -19 15 -48 15 -63 0 -32 52 -139
58 -120 2 6 -5 25 -16 40 -22 29 -31 87 -18 108 4 7 2 12 -4 12 -7 0 -9 7 -6
15 3 9 -1 18 -9 21 -8 4 -15 12 -15 19 0 8 -4 17 -10 20 -5 3 -10 1 -10 -5z"/>
<path d="M10346 13335 c4 -8 10 -15 15 -15 4 0 6 7 3 15 -4 8 -10 15 -15 15
-4 0 -6 -7 -3 -15z"/>
<path d="M10356 13288 c9 -28 46 -79 52 -73 3 3 -2 13 -10 22 -8 10 -18 30
-22 46 -3 15 -11 27 -17 27 -6 0 -8 -9 -3 -22z"/>
<path d="M13131 874 c0 -11 3 -14 6 -6 3 7 2 16 -1 19 -3 4 -6 -2 -5 -13z"/>
<path d="M11135 26280 c4 -6 11 -8 16 -5 14 9 11 15 -7 15 -8 0 -12 -5 -9 -10z"/>
<path d="M8100 26141 c0 -5 5 -13 10 -16 6 -3 10 -2 10 4 0 5 -4 13 -10 16 -5
3 -10 2 -10 -4z"/>
<path d="M7014 26024 c-18 -14 -18 -15 4 -4 12 6 22 13 22 15 0 8 -5 6 -26
-11z"/>
<path d="M8550 25881 c0 -6 4 -12 8 -15 5 -3 9 1 9 9 0 8 -4 15 -9 15 -4 0 -8
-4 -8 -9z"/>
<path d="M6724 25798 l-19 -23 23 19 c21 18 27 26 19 26 -2 0 -12 -10 -23 -22z"/>
<path d="M11880 25610 c0 -5 5 -10 10 -10 6 0 10 5 10 10 0 6 -4 10 -10 10 -5
0 -10 -4 -10 -10z"/>
<path d="M8405 25121 c-3 -5 -1 -12 5 -16 5 -3 10 1 10 9 0 18 -6 21 -15 7z"/>
<path d="M12231 25064 c0 -11 3 -14 6 -6 3 7 2 16 -1 19 -3 4 -6 -2 -5 -13z"/>
<path d="M12253 25037 c0 -20 4 -32 8 -26 4 7 6 -22 5 -64 0 -41 2 -70 6 -64
9 14 11 4 8 -36 -1 -15 3 -33 8 -40 5 -7 10 -23 11 -37 0 -24 8 -65 11 -65 1
0 4 -16 7 -35 2 -19 8 -39 12 -45 5 -5 16 -35 26 -65 52 -163 48 -151 79 -222
9 -20 16 -43 16 -52 0 -8 9 -39 21 -68 26 -67 59 -194 54 -211 -2 -6 -6 -24
-9 -40 -5 -22 -10 -26 -24 -18 -10 5 -24 6 -33 1 -9 -5 -50 -16 -91 -25 -82
-17 -265 -104 -373 -177 -115 -79 -224 -207 -230 -270 -1 -10 -12 -27 -25 -38
-15 -13 -20 -24 -14 -28 6 -4 13 -15 17 -25 6 -15 10 -16 26 -5 18 11 24 9 50
-16 17 -16 33 -42 36 -57 10 -46 25 -44 25 4 0 31 8 55 25 81 14 20 25 42 25
47 0 15 77 82 98 86 9 2 44 5 77 7 33 3 72 7 87 11 19 4 33 0 45 -13 49 -51
64 -70 67 -88 3 -10 8 -28 12 -39 6 -16 5 -18 -7 -7 -18 17 -94 15 -134 -4
-18 -8 -54 -35 -79 -59 -36 -34 -46 -50 -46 -75 0 -70 123 -144 238 -143 45 0
45 -6 -1 -25 -16 -7 -26 -8 -22 -2 3 6 -1 7 -10 4 -14 -6 -12 -11 11 -35 15
-16 30 -27 32 -24 3 2 13 0 24 -6 10 -5 24 -7 30 -3 8 5 -2 14 -27 26 -24 10
-32 18 -21 18 25 0 86 47 86 66 0 10 5 12 13 8 9 -6 9 -4 -1 8 -10 13 -9 16 7
21 11 3 28 21 38 41 9 20 20 36 25 36 18 0 6 19 -14 22 -12 2 -23 9 -26 17 -3
10 2 12 21 7 20 -5 29 -1 41 15 13 19 19 20 43 11 58 -22 81 -23 92 -5 9 16
10 16 11 -3 0 -12 6 -24 14 -27 8 -3 21 -38 31 -78 9 -40 21 -80 26 -88 11
-17 11 -19 -12 99 -14 75 -39 236 -64 405 -70 484 -173 958 -240 1110 -8 17
-32 78 -54 136 -22 58 -51 127 -64 154 l-25 49 1 -37z m126 -1776 c1 -35 -5
-22 -12 24 -5 28 -4 34 3 20 5 -11 9 -31 9 -44z"/>
<path d="M8390 24965 c0 -8 2 -15 4 -15 2 0 6 7 10 15 3 8 1 15 -4 15 -6 0
-10 -7 -10 -15z"/>
<path d="M10540 24035 c-41 -6 -108 -22 -149 -35 -78 -24 -310 -137 -337 -164
-8 -9 -22 -16 -29 -16 -7 0 -20 -6 -27 -12 -8 -7 -30 -22 -49 -33 -54 -31
-196 -186 -229 -251 -31 -60 -42 -114 -17 -82 22 29 162 138 172 134 6 -2 31
7 57 20 26 13 90 35 142 49 52 13 112 33 133 43 41 20 163 30 163 14 0 -6 8
-8 18 -6 9 3 35 1 57 -4 30 -6 39 -13 37 -25 -2 -14 2 -16 24 -11 17 4 25 3
21 -3 -4 -7 10 -9 39 -7 l45 3 -16 -25 c-18 -28 -5 -31 29 -9 22 15 24 15 22
-2 -1 -13 5 -17 24 -15 13 1 28 8 32 15 4 6 8 8 8 4 0 -4 -7 -19 -16 -33 -9
-13 -14 -27 -12 -30 11 -10 56 15 81 46 15 17 27 28 27 23 0 -5 15 -8 33 -7
18 1 68 -10 112 -25 44 -15 82 -27 85 -27 3 -1 21 -6 41 -13 43 -14 84 -2 94
28 9 29 -33 181 -63 226 -44 66 -86 112 -135 150 -25 19 -49 35 -53 35 -4 0
-15 7 -24 15 -18 17 -172 45 -230 43 -19 0 -69 -6 -110 -13z"/>
<path d="M10110 23538 c0 -39 3 -68 8 -64 4 4 7 37 7 72 0 35 -3 64 -7 64 -5
0 -8 -32 -8 -72z"/>
<path d="M10340 23527 c-91 -20 -170 -57 -170 -78 0 -11 -5 -19 -11 -19 -5 0
-7 -5 -3 -12 5 -8 2 -9 -11 -5 -11 5 -22 1 -31 -10 -9 -12 -13 -14 -14 -5 0 7
-4 10 -10 7 -5 -3 -10 -2 -10 4 0 5 6 12 13 14 7 3 5 6 -5 6 -10 1 -18 -4 -18
-10 0 -6 -9 -9 -20 -6 -11 3 -20 0 -20 -6 -1 -7 -2 -36 -3 -65 -1 -30 2 -57 9
-63 25 -21 115 -40 209 -46 98 -5 100 -5 110 18 13 31 47 31 60 2 17 -39 39
-27 59 31 24 69 17 148 -16 209 -26 48 -38 51 -118 34z m-174 -164 c-11 -11
-19 6 -11 24 8 17 8 17 12 0 3 -10 2 -21 -1 -24z"/>
<path d="M8007 23363 c-12 -12 -7 -23 11 -23 13 0 14 2 3 9 -11 7 -11 9 0 14
8 3 9 6 3 6 -6 1 -14 -2 -17 -6z"/>
<path d="M10497 23281 c-28 -55 -25 -59 30 -36 27 12 33 18 25 28 -6 7 -15 23
-20 36 -8 21 -10 19 -35 -28z m25 -13 c-7 -7 -12 -8 -12 -2 0 14 12 26 19 19
2 -3 -1 -11 -7 -17z"/>
<path d="M7812 23090 c0 -14 2 -19 5 -12 2 6 2 18 0 25 -3 6 -5 1 -5 -13z"/>
<path d="M7791 23064 c0 -11 3 -14 6 -6 3 7 2 16 -1 19 -3 4 -6 -2 -5 -13z"/>
<path d="M12721 23064 c0 -11 3 -14 6 -6 3 7 2 16 -1 19 -3 4 -6 -2 -5 -13z"/>
<path d="M7750 23029 c0 -11 4 -18 10 -14 5 3 7 12 3 20 -7 21 -13 19 -13 -6z"/>
<path d="M7545 22870 c-3 -5 -1 -10 4 -10 6 0 11 5 11 10 0 6 -2 10 -4 10 -3
0 -8 -4 -11 -10z"/>
<path d="M7320 22669 c0 -5 5 -7 10 -4 6 3 10 8 10 11 0 2 -4 4 -10 4 -5 0
-10 -5 -10 -11z"/>
<path d="M6525 22459 c-4 -6 -5 -12 -2 -15 2 -3 7 2 10 11 7 17 1 20 -8 4z"/>
<path d="M6960 22348 c0 -9 5 -20 10 -23 13 -8 13 5 0 25 -8 13 -10 13 -10 -2z"/>
<path d="M5331 22184 c0 -11 3 -14 6 -6 3 7 2 16 -1 19 -3 4 -6 -2 -5 -13z"/>
<path d="M7590 17124 c0 -8 5 -12 10 -9 6 4 8 11 5 16 -9 14 -15 11 -15 -7z"/>
<path d="M7780 16786 c0 -2 7 -7 16 -10 8 -3 12 -2 9 4 -6 10 -25 14 -25 6z"/>
<path d="M540 14240 c-1 -3 -4 -17 -5 -31 -3 -23 0 -25 21 -21 13 2 21 8 18
13 -3 5 -9 7 -14 4 -5 -3 -11 5 -13 17 -2 13 -5 21 -7 18z"/>
<path d="M552 14158 c2 -12 10 -23 18 -23 22 0 19 39 -3 43 -15 3 -18 -1 -15
-20z"/>
<path d="M826 12961 c-3 -5 2 -12 12 -16 16 -6 16 -7 0 -16 -19 -11 -22 -42
-7 -74 7 -15 8 -13 3 12 -3 21 -1 34 9 40 21 13 29 43 11 43 -8 0 -12 5 -9 10
3 6 2 10 -4 10 -5 0 -12 -4 -15 -9z"/>
<path d="M862 12878 c-17 -17 -15 -35 4 -42 24 -9 28 -7 14 9 -10 12 -10 18 0
30 15 18 -1 20 -18 3z"/>
<path d="M1147 11133 c-4 -3 -7 -11 -7 -17 0 -6 5 -5 12 2 6 6 9 14 7 17 -3 3
-9 2 -12 -2z"/>
<path d="M1051 10734 c0 -11 3 -14 6 -6 3 7 2 16 -1 19 -3 4 -6 -2 -5 -13z"/>
<path d="M1250 9978 c0 -15 5 -30 10 -33 13 -8 13 25 0 45 -8 12 -10 9 -10
-12z"/>
</g>
</svg>
